/* XPM */
static char *_51687543315[] = {
/* columns rows colors chars-per-pixel */
"64 64 238 2 ",
"   c None",
".  c #010100",
"X  c #080503",
"o  c #0B0B04",
"O  c #040B04",
"+  c #120D04",
"@  c #150F0C",
"#  c #170603",
"$  c #0E1505",
"%  c #011904",
"&  c #08190A",
"*  c #051608",
"=  c #171305",
"-  c #1B1809",
";  c #1C1812",
":  c #2A0401",
">  c #370501",
",  c #221A0A",
"<  c #291508",
"1  c #361508",
"2  c #231C12",
"3  c #291D16",
"4  c #1A2312",
"5  c #07310D",
"6  c #27200D",
"7  c #2B230E",
"8  c #2E2411",
"9  c #242913",
"0  c #2D271A",
"q  c #332A12",
"w  c #3C2E16",
"e  c #392C1D",
"r  c #352618",
"t  c #3F331F",
"y  c #35351C",
"u  c #2E3311",
"i  c #3F2E20",
"p  c #3C3428",
"a  c #2C3926",
"s  c #480301",
"d  c #540100",
"f  c #5C0301",
"g  c #540B07",
"h  c #581106",
"j  c #5A1611",
"k  c #441409",
"l  c #640101",
"z  c #6B0201",
"x  c #6C0D09",
"c  c #740100",
"v  c #7A0100",
"b  c #790C0A",
"n  c #7A170E",
"m  c #681610",
"M  c #4B2F1E",
"N  c #5C261D",
"B  c #433417",
"V  c #45361B",
"C  c #4B391C",
"Z  c #46391D",
"A  c #533C1E",
"S  c #583F1F",
"D  c #5E3515",
"F  c #4C2C07",
"G  c #663D1E",
"H  c #752812",
"J  c #592D21",
"K  c #473927",
"L  c #513D2D",
"P  c #593627",
"I  c #4D3F33",
"U  c #623226",
"Y  c #68382A",
"T  c #7A3C27",
"R  c #3A422E",
"E  c #764515",
"W  c #5D4122",
"Q  c #564728",
"!  c #484031",
"~  c #4C4B38",
"^  c #444432",
"/  c #544231",
"(  c #594432",
")  c #554837",
"_  c #5E4936",
"`  c #5C4C39",
"'  c #475439",
"]  c #5A533E",
"[  c #644524",
"{  c #6D4625",
"}  c #6A4A27",
"|  c #6D4429",
" . c #744E2A",
".. c #794A24",
"X. c #7B532E",
"o. c #634D39",
"O. c #6B4B34",
"+. c #744D3B",
"@. c #65503C",
"#. c #7E5635",
"$. c #56401F",
"%. c #5E5B47",
"&. c #6C5542",
"*. c #695A45",
"=. c #725A46",
"-. c #7F5D4A",
";. c #676549",
":. c #76604C",
">. c #7D644F",
",. c #786955",
"<. c #77725A",
"1. c #6B6D56",
"2. c #7E7B64",
"3. c #687A61",
"4. c #516540",
"5. c #830000",
"6. c #8B0101",
"7. c #830A07",
"8. c #950100",
"9. c #9C0101",
"0. c #920C09",
"q. c #9A0A08",
"w. c #83110D",
"e. c #891C17",
"r. c #991914",
"t. c #A20000",
"y. c #AC0000",
"u. c #A20A08",
"i. c #B60000",
"p. c #BF0000",
"a. c #B70C08",
"s. c #AD100D",
"d. c #AC1A15",
"f. c #90240F",
"g. c #B12C0F",
"h. c #863A25",
"j. c #972F25",
"k. c #B03228",
"l. c #C90000",
"z. c #C60602",
"x. c #D30000",
"c. c #DB0000",
"v. c #D90A08",
"b. c #C2110E",
"n. c #CE1411",
"m. c #E40000",
"M. c #EC0302",
"N. c #F50000",
"B. c red",
"V. c #F80809",
"C. c #FA1C1B",
"Z. c #E81915",
"A. c #D2352C",
"S. c #FE2B2B",
"D. c #F43635",
"F. c #DF2F1D",
"G. c #82542D",
"H. c #89572F",
"J. c #8B592F",
"K. c #895123",
"L. c #8C5B34",
"P. c #865A34",
"I. c #915E37",
"U. c #854537",
"Y. c #8A6038",
"T. c #956037",
"R. c #93643D",
"E. c #9C643A",
"W. c #B1431D",
"Q. c #DC453A",
"!. c #8B5845",
"~. c #9E5647",
"^. c #AD5042",
"/. c #B15648",
"(. c #986847",
"). c #816954",
"_. c #896A55",
"`. c #9B6552",
"'. c #8A735D",
"]. c #86715B",
"[. c #93755B",
"{. c #8C6C4B",
"}. c #A86D42",
"|. c #A26942",
" X c #AE7042",
".X c #A0724B",
"XX c #B77749",
"oX c #BA7256",
"OX c #857964",
"+X c #927A64",
"@X c #9A7B65",
"#X c #AB7664",
"$X c #F74F4E",
"%X c #C37D4E",
"&X c #D96656",
"*X c #CC7967",
"=X c #EC6B5D",
"-X c #83815E",
";X c #8C8069",
":X c #9C826B",
">X c #99896C",
",X c #998972",
"<X c #9F947A",
"1X c #A6836E",
"2X c #A38A73",
"3X c #A88C74",
"4X c #A7977E",
"5X c #AA937B",
"6X c #B4957B",
"7X c #B6876F",
"8X c #B2825E",
"9X c #CB8353",
"0X c #DF8F5B",
"qX c #D88856",
"wX c #DB9162",
"eX c #CF906F",
"rX c #E89A68",
"tX c #E89E71",
"yX c #F88963",
"uX c #F8A774",
"iX c #B39B83",
"pX c #B59D86",
"aX c #98A589",
"sX c #BBA68D",
"dX c #BDA791",
"fX c #BEAE93",
"gX c #ACA78D",
"hX c #B8BDA0",
"jX c #C4AD94",
"kX c #CAAE94",
"lX c #D0AE8E",
"zX c #EAB690",
"xX c #F1B084",
"cX c #D9BCA2",
"vX c #D79D85",
"bX c #F5CEA7",
"nX c #FFC187",
"mX c #FFE0C0",
/* pixels */
"                                                  jX                                                                            ",
"                                                  dX                                                                            ",
"                                            jX  jXiX                                                                            ",
"                                            mX  sX3X                                                                            ",
"                                            cX3X3X1X                                                                            ",
"                                            6XiX+X_.                                                                            ",
"                                G. ...X.D   _.5X+XL A  . ...Y                                                                   ",
"                                T.R.(.T.{   &.,X+XL X.G.J.J.H.[                                                                 ",
"                            G.G.K.[.6XY.Y.6X) oXR.` {...J.L.L.X.                                                                ",
"                            G.XXR.1XjXY.(.<.I 9XJ.,.>.X.(..XR.P.|                                                               ",
"                          | T.uXiXdXdX[.:.$ ~ tX} OX/ >.6X6X@X.. .                                                              ",
"                           . XxXdXdXpX@X).. >.uXY.[.L 1X4X5X3XX...                                                              ",
"                          L.rX6X:X:X5X'.oXW wX0X9X X#.eX2.=.6X).F W                                                             ",
"                        |  XxX'.` :.+X_.9X|.9XI. XE.E.1X].i ).,.Q #.                                                            ",
"                        D 0XzX*.X Q *.>.#.9XM < 7 L.}.@.iX@ @ ! 3X_.{  .                                                        ",
"                          tX5Xp . 8 t Q W }.. . . } T.V 2Xo . K kX>X#.J.}                                                       ",
"                          lX>.@ t X X + K G.. . . B  .i &.; e ` sX5X[.[ H.}                                                     ",
"                        jXkX( . ( + . . B  .O . . B S V K w o.&.3XpX>XA G.L.                                                    ",
"                        pXpXL . ( B - . 9 L.6 + - { A a / V o.o.:XpX5X_ B X.$.                                                  ",
"                        cX3XL X O.O.; & 9 J.P B B  .B ; ( P Q / +XsX5X:.8 W  .                                                  ",
"                        bX'.L X T.P.* y V W T.P.X.} - . C  .V V [.sXiX@XZ w  .C                                                 ",
"                        cX).i X G.Y.- _ K q L.P.X.C $ . w J.C w '.dXiX1X) q } }                                                 ",
"                      gXzX{.& . w X.q P.p $ w B B < o = 7  X[ q '.fXiX:X@.w P X. .                                              ",
"                      cXxX[.% . 7 [ w Y.A O . . + X o - = I.W 3 +XjX6X+X=.t V G.T.}                                             ",
"                  G.R.dXzX1Xa O P g q X. .= . . . . O o . V 3 = >XjXiX1X=.e w } L.X.                                            ",
"                  J.(.gXrX%XY < j.d Z W W q 3 r , . O O . = X @ iXjXiX2X&.e q W  .P.                                            ",
"                L.J.P.cX&XZ.b.9.v.j Q q - W qXxXR.. o * . X . ; dXjXsX2X@.t 8 Z A X.                                            ",
"                P.X.Q 3XF.B.B.m.M.N O.7 - R.nXbXXX= o $ . - o / lXjXdX:X_ e 7 w w [                                             ",
"                ..} w e.v.B.B.B.y.N Q B } rXxX0X .- $ - $ K ! 1XuXvXsX:X_ i 7 q w B {                                           ",
"                W $.< 5.x.B.B.B.v e K S XXuXtXE.V - 2 Z C o.:XzXuXjXsX+X_ i 8 q w 8 }                                           ",
"                A K = y.M.c.c.N.f & Z } rXtX9XG.B $ w E.%XG.kXbXzXsX5X+X_ t 6 8 w w S                                           ",
"                K y > l.B.l.9.m.5.& u E.rXrX X[ A 8 C E.0XT.iXbXcXiX5X+X( e 6 q q w C                                           ",
"                  4 z l.B.p.l c.c.$ u 9XqX0X}.7  .[ V A  X XQ bXsXiX5X:X/ - 7 7 8 q C                                           ",
"                  < 0.n.N.s.l l.N.j y wX XqXE.q E.X.7 - X.XXB xX,XiX5X1X! = 7 7 7 7 Z                                           ",
"                f.d r.&Xc.U.0.a.l.z.G XXE.qXT.[ qX#.. % A  X!.-X4.6X<X1XQ = 7 7 8 = B   kXtX                                    ",
"              H g.6.d.eXl.*.a.i.i.M.K.E.P.9XT.T.0X| O 5 Z E.|.4.;.3X>X:XL = 8 8 6 + <   kXbXgX                                  ",
"              H W.y.a.eXc.` s.l.i.z.T R...9XT.9XXXZ a @.K #.X.~ ].+X,X:X/ + 7 7 = , = w jXbXdX@X                                ",
"              K.g.p.A.oXz.P a.z.i.6.T L.S 9XT.9XL.u ' ).L [ { e ).+X2X,X^ . 6 , + , , Q iX@X7XkX                                ",
"            Z E z.c.1X/.r.N i.9.t.z T Y.w  XT.R. .5 ' >.L V { = I OX,X,XR . , + o - K ].OXb 0.7X<X                              ",
"            Q H c.m.aX/.H m 8.5.t.h { L.u  XR.E B 5 R =.( 8 [ . 0 _.+X`.T 0 @ 3 e K :.,X,.l 7./.fX                              ",
"            Q H x.m.aX^.H w.v v y.k  .I.w  XE.B 4 % 2 @._ 8 A o 3 ,.<.s.S.#X& I '.'.OX,XOX>.@Xe.:XhX                            ",
"            p H t.n.gX~.n r.5.c y.1 Q I.w }.E.7 * & @ o.L q B o 2 +.~.x.S.=Xp >.5X2X~.7X7X`.iXd.^.eX                            ",
"            6 C z `.fX!.6.a.t.z 9.: Q I.B  X|.q X i @ o.; K 7 . . H Z.S.M.C.~.OX@X2.r.=X=Xd.`.A.b.F.                            ",
"            + a s 2.hXOX0.y.z.x 8.: C I.7  XE.w X e ; ( . / - . . g M.S.c.V.oX+X].<.d.D.$Xp.!.D.c.p.                            ",
"            # 9 s <.hXaXj.c l.Y 8.: V L.+ }.|.w . @ 2 e . L . . . < g.x.M.B.oXOX:.,.'.C.V.9.2.D.l.6.N.                          ",
"            8 ^ U !.*X7Xk.6.v.O.8.# t T.@ I.L.w . . 0 ; . V . . X 9 F 8.c.N.!.;.&.=.2.b.m.n 3.k.u.x l.                          ",
"            =.2.aX$XC.C.V.M.C.T v . B %Xw }  .w . . 3 3 . o . . 3 ( 6 k t.x.Y ) o.@.&.Y T [ %.Y U U 5.                          ",
"            @X#XvX$XC.B.B.B.C.G d O , %X} C [ 7 . . 0 0 . . . . e =.$ $ 6.y.K I I o.L ! ' *.` ~ ~ L >                           ",
"            OXA.S.yX*XB.B.B.z.V 6 % % }.E.q V + . . 0 r . . . . K _.o X v 8.L ) / / L I ~ +X+X:.*.2 #                           ",
"            1.k.B.tXsXB.Z.v.t.0 Q C 9 T.|.- 6 . . . ; ; . . . . ) [.0 2 7.8.N K L L L L I @X@X).&.+ &                           ",
"          o.%.O.l.7XpXM.^.d.6.u 9X9XE.T. .X X . . . . O . . . O ;.@X>.%.j.t.x 2 / / I L _ >.].=.( @ !                           ",
"          L L ' n 1X6Xc./.j.8.r 0XqX9XL.A . . . . . X . . . 4 i &.-.:XOXU.9.c # / / L L _ &.>.&.L 0 P Y                         ",
"          4 / ! K ,X#Xz./.j.i.g Y.T.L.X.t . . . . . : > . . 1.^.h g +X<.*.e.z = / L L L _ =.>.o.L i s j.        >.              ",
"          ; ( ( ~ ,X@Xt.j.k.i.j ! W A W 7 . . O . # d f # # <.Q.z s &.o.*.Y d @ / ( ( ` &.:.).&._ I > r.        >X              ",
"      % % K &.=.<.5X@X6.s.M.z.K 9 9 9 9 - . & & O d v v l l m w.c J j j ~ ` < o / o.*.&.:.).].>.=.p # x @.;Xx ;.<.H v v 5.    z ",
"      - - _ *.=.+X4X@Xw.i.N.i.P : < 1 1 1 # 1 1 < 5.6.6.8.8.v 7.5.P d d L I ; ; / %.*.*.:.,.<.;.*.I < f T `.0.&.O.r.t.9.t.b   z ",
"      z f / @.:.>.2X<Xh.8.c.p.z f l z z v c v c z 6.6.9.y.t.9.p.5.m l d g g p R ~ ~ ~ ~ %.;.*.%.) ~ P c w.e.6.w.7.i.i.i.6.m     ",
"    5.8.5./ ` =.=.:X4X`.e.s.i.z b b 5.8.t.t.y.t.t.t.9.y.5.z 5.c.8.5.5.z l z U | U U U P Y O.| U J Y Y v 5.5.5.6.v t.t.t.6.J     ",
"c t.9.8.5.( ` &.>.:XiX+X'.!.u.J Y +.b 8.i.i.z.p.p.p.y.p.1 & 1 c.i.y.y.9.8.8.q.u.q.q.q.0.0.q.0.q.b b b z c v v n J       9.g     ",
"z s.y.t.8._ @.o.:.2XiX,X<X2.6.L ~ ' k l 5.t.5.8.8.q.t.i.1 & < p.p.p.z.y.t.t.y.i.i.i.i.y.t.t.t.t.8.5.v g d l l j         7.      ",
"  h.6.y.y._ *._ =.3X5X5X<XOXc ( ^ 5 * * 1 5.- < , 1 v 6.v x z y.t.y.9.8.6.5.8.9.y.t.y.t.8.8.6.5.v l m ^             ].+XU K     ",
"  / l t.t.L o.L _ +X+X@X+X=.m o.K # @ = 1 x % % % * f l 5.8.5.5.6.5.v v c z c v 6.5.5.6.v v c z l h x |             OX+X        ",
"              i K &.=.@.o.( L @.U c 5.v b Y k       d     6.z           z                   z z   P c b z (                     ",
"              e r / _ / L K ] %.U t.i.p.r.Y         d     v l           z                   z     ` 5.8.5.O.                    "
};
