/* XPM */
static char *result[] = {
/* columns rows colors chars-per-pixel */
"47 64 241 2 ",
"   c #0B0B0B",
".  c #070705",
"X  c #160B08",
"o  c #1E160B",
"O  c #18140C",
"+  c #131313",
"@  c #1C1915",
"#  c #1C1B1B",
"$  c #181716",
"%  c #231B0D",
"&  c #251B0D",
"*  c #231D18",
"=  c #200D0A",
"-  c #2B220F",
";  c #2D2410",
":  c #27231A",
">  c #332513",
",  c #342B14",
"<  c #3C2D16",
"1  c #3B2E1B",
"2  c #342B1E",
"3  c #3F3019",
"4  c #242424",
"5  c #2C2923",
"6  c #2C2C2C",
"7  c #272828",
"8  c #332B23",
"9  c #3A3329",
"0  c #343434",
"q  c #3C3C3C",
"w  c #383837",
"e  c #690202",
"r  c #7A100E",
"t  c #413017",
"y  c #433219",
"u  c #4A361B",
"i  c #4D391C",
"p  c #533C1E",
"a  c #50291B",
"s  c #473827",
"d  c #593E21",
"f  c #523E2E",
"g  c #543D22",
"h  c #453C37",
"j  c #552624",
"k  c #653128",
"l  c #682D22",
"z  c #38762B",
"x  c #336B26",
"c  c #2A591E",
"v  c #564122",
"b  c #5C4222",
"n  c #58412F",
"m  c #565C29",
"M  c #45413D",
"N  c #554131",
"B  c #5B4735",
"V  c #5E4936",
"C  c #5C4A3A",
"Z  c #52483C",
"A  c #5B5638",
"S  c #634425",
"D  c #684726",
"F  c #6C4A2A",
"G  c #694828",
"H  c #744D2B",
"J  c #794F2C",
"K  c #7C522E",
"L  c #624D3B",
"P  c #634A35",
"I  c #66513E",
"U  c #725732",
"Y  c #4A6B2C",
"T  c #4F712E",
"R  c #4B7A30",
"E  c #5A6530",
"W  c #6D6634",
"Q  c #444443",
"!  c #4B4B4B",
"~  c #4B4946",
"^  c #574D45",
"/  c #5C5249",
"(  c #535353",
")  c #5C5B5B",
"_  c #595856",
"`  c #4D5050",
"'  c #6C5642",
"]  c #6E5945",
"[  c #665648",
"{  c #715A46",
"}  c #745E4A",
"|  c #755B44",
" . c #685C52",
".. c #754646",
"X. c #7A624D",
"o. c #76604C",
"O. c #7E6651",
"+. c #7A695B",
"@. c #6A635D",
"#. c gray39",
"$. c #6D6C6C",
"%. c #6A6A68",
"&. c #746A65",
"*. c #747373",
"=. c #7B7B7C",
"-. c #7E7772",
";. c #6E7071",
":. c #8B0000",
">. c #9A0000",
",. c #831510",
"<. c #BB0504",
"1. c #AB0907",
"2. c #913430",
"3. c #B62723",
"4. c #C80000",
"5. c #D01312",
"6. c #E8352C",
"7. c #835632",
"8. c #8C5B35",
"9. c #875835",
"0. c #915E37",
"q. c #945F38",
"w. c #825037",
"e. c #87683B",
"r. c #956139",
"t. c #9B643C",
"y. c #98683C",
"u. c #8E713D",
"i. c #A2683F",
"p. c #8D5543",
"a. c #996845",
"s. c #826A54",
"d. c #856E59",
"f. c #886A52",
"g. c #8B735D",
"h. c #87705A",
"j. c #956E55",
"k. c #A56B40",
"l. c #AB6E43",
"z. c #AE7247",
"x. c #B37246",
"c. c #BA784B",
"v. c #AD7556",
"b. c #8B7461",
"n. c #86786A",
"m. c #907761",
"M. c #947B64",
"N. c #977E69",
"B. c #997F69",
"V. c #847D7C",
"C. c #A25244",
"Z. c #C37B4C",
"A. c #C97F4E",
"S. c #E1624E",
"D. c #3E8832",
"F. c #3E812E",
"G. c #418932",
"H. c #429437",
"J. c #72833D",
"K. c #63A34F",
"L. c #B9845E",
"P. c #9C826C",
"I. c #96836F",
"U. c #8B847C",
"Y. c #9A8776",
"T. c #A8866A",
"R. c #B98A69",
"E. c #A58C75",
"W. c #AC8D77",
"Q. c #AB937C",
"!. c #A79078",
"~. c #B69579",
"^. c #B48E73",
"/. c #C8865C",
"(. c #D68C5C",
"). c #C88C66",
"_. c #CC926C",
"`. c #C89A78",
"'. c #DC9E74",
"]. c #D49C77",
"[. c #DC966A",
"{. c #E79B6B",
"}. c #D5A37F",
"|. c #E7A57A",
" X c #F4AA7C",
".X c #F0A576",
"XX c #858585",
"oX c #8D8D8D",
"OX c #898683",
"+X c #918C89",
"@X c #939393",
"#X c #9B9B9B",
"$X c #9C9894",
"%X c #92908D",
"&X c #AD9784",
"*X c #B39B84",
"=X c #BC9D83",
"-X c #A39391",
";X c #BCA28B",
":X c #B8A087",
">X c #AFA499",
",X c #9A9FA0",
"<X c #A6A6A6",
"1X c #ACACAC",
"2X c #AAA5A0",
"3X c #B5B5B4",
"4X c #BBBBBB",
"5X c #BFB8B4",
"6X c #B6AEA7",
"7X c #C69B86",
"8X c #D59794",
"9X c #C8A487",
"0X c #D6A784",
"qX c #D8AF93",
"wX c #D2B19A",
"eX c #E6AD86",
"rX c #F4AD81",
"tX c #FFAF8B",
"yX c #F9B489",
"uX c #E8B99A",
"iX c #FBBB94",
"pX c #F7BB97",
"aX c #EBB28D",
"sX c #C5BEB9",
"dX c #EDB5A4",
"fX c #ED9C9D",
"gX c #FDC19C",
"hX c #F7C7AB",
"jX c #C3C3C3",
"kX c #CBCACA",
"lX c #D3D4D4",
"zX c #DBDBDB",
"xX c #D0CBC6",
"cX c #ECD6CA",
"vX c #E7D6D3",
"bX c #E5E1DE",
"nX c #DFE0E0",
"mX c #E3E3E3",
"MX c #EAE9E8",
"NX c #EBF1F1",
"BX c None",
/* pixels */
"BXBXBXBXBXBXBXBXBXBXBXBXBXBXBXBXBXBXBX*X&X+XoXXXBXBXBX9X7X`.:XBXBXBXBXBXBXBXBXBXBXBXBXBXBXBXBX",
"BXBXBXBXBXBXBXBXBXBXBXBXBXBXBXBXBXBXBXQ.+.=.3X,X&.yXyX X{.'.&X%.#.) BXBXBXBXBXBXBXBXBXBXBXBXBX",
"BXBXBXBXBXBXBXBXBXBXBXBXBXBXBXBXBXBXBXE.@.! *.@X&.|. XrX'.~.*.XXXX%.~ BXBXBXBXBXBXBXBXBXBXBXBX",
"BXBXBXBXBXBXBXBXBXBXBXBXBXBXBXBXBXBXBXM.o.0 0 ( ^ !.0X;X*XQ.~ q q Q q BXBXBXBXBXBXBXBXBXBXBXBX",
"BXBXBXBXBXBXBXBXBXBXBXBXBXBXBXBXBXBXBXQ.g.C h s N { ^.`.Q.Y.$.BXBX7 0 BXBXBXBXBXBXBXBXBXBXBXBX",
"BXBXBXBXBXBXBXBXBXBXBXBXBXBXBXBXBXBXBXP.O.I I V N V f.}.;X;.) 1XBXBXBXBXBXBXBXBXBXBXBXBXBXBXBX",
"BXBXBXBXBXBXBXBXBXBXBXBXBXBXBXBXBXBXBXO.O.o.' L g.I.} f.0X[ r -XBXBXBXBXBXBXBXBXBXBXBXBXBXBXBX",
"BXBXBXBXBXBXBXBXBXBXBXBXBXBXBXBXBXBXo.h.h.X.' V ' T.[.T.P.^ -X+XBXBXBXBXBXBXBXBXBXBXBXBXBXBXBX",
"BXBXBXBXBXBXBXBXBXBXBXBXBXBXBXBXBXP.P.:X!.O.L L N I X.' ] Y.]._.-.BXBXBXBXBXBXBXBXBXBXBXBXBXBX",
"BXBXBXBXBXBXBXBXBXBXBXBXBXBXBXBX!.&X:X!.g.' C } V f n N / n.N.{ L M.BXBXBXBXBXBXBXBXBXBXBXBXBX",
"BXBXBXBXBXBXBXBXBXBXBXBXBXBXBXP.~.9X!.h.O.o.L d.] f f f N h d.' { BXBXBXBXBXBXBXBXBXBXBXBXBXBX",
"BXBXBXBXBXBXBXBXBXBXBXBXBXBXP.*X0XeXP.{ M.m.C P.} V N N N N g.N.BXBXBXBXBXBXBXBXBXBXBXBXBXBXBX",
"BXBXBXBXBXBXBXBXBXBXBXtXiX].].9X0X9Xh.d.!.g.' P.g.O.N N f BXBXBXBXBXBXBXBXBXBXBXBXBXBXBXBXBXBX",
"BXBXBXBXBXBXBXBXBXBX`. XiXgXgXeXuX}.^.~.`.f.{ E.^.R.f f L _.BXBXBXBXBXBXBXBXBXBXBXBXBXBXBXBXBX",
"BXBXBXBXBXBXBXBX<.<.3.l.wXaXiXrXqX=X].0XeXT.{ M.Q.&.` h h  .M.BXBXBXBXBXBXBXBXBXBXBXBXBXBXBXBX",
"BXBXBXBXBXBXBX4.BXp.j.*XQ.'.rX9X:XQ.Q.uXiXT.} X.Q.I.b.b.b.b.B.g.BXBXBXBXBXBXBXBXBXBXBXBXBXBXBX",
"BXBXBXBXBXBXBX5.....E.=XQ.&X9X*X&XN.^.yXiX X X~.M.} L ' o.d.M.m.BXBXBXBXBXBXBXBXBXBXBXBXBXBXBX",
"BXBXBXBXBXBXBXe 3.-XM.~.Q.P.Y.*XQ.d.j.'.|.|.}.;XQ.m.] ' X.s.g.W.!.BXBXBXBXBXBXBXBXBXBXBXBXBXBX",
"BXBXBXBXBXBXBXBX3.8Xm.&X;X&XY.Y.`.g.O.N.P.Q.~.*X*XE.g.s.B.m.g.m.h.BXBXBXBXBXBXBXBXBXBXBXBXBXBX",
"BXBXBXBXBXBXBX4.p.5.C.^.vXnX4XOXuX`.j.s.m.m.P.E.Q.W.M.m.B.m.h.s.X.BXBXBXBXBXBXBXBXBXBXBXBXBXBX",
"BXBXBXBXBXBXBXBXw.S.S.6.fXNXzX2XpXrX~.O.m.m.m.P.B.M.g.m.m.b.O.' h.BXBXBXBXBXBXBXBXBXBXBXBXBXBX",
"BXBXBXBXBXBXBXBX<.T.S.6.8X,X*._ 9X`.E.M.d.s.m.m.g.d.s.f.d.X.o.{ { BXBXBXBXBXBXBXBXBXBXBXBXBXBX",
"BXBXBXBXBXBXBXBXp.f._.tXaX]._.E.*XE.&XjXsX2XU./ } X.s.} | ] { P B s.BXBXBXBXBXBXBXBXBXBXBXBXBX",
"BXBXBXBXBXBXBXBX+.I E.uXyXgXyX9XQ.kXbXmXMXMXzX1X$._ &.^ } } L f N ' ] BXBXBXBXBXBXBXBXBXBXBXBX",
"BXBXBXBXBXBXBXBXBX' T. X0XuXgXiXpXbXzXzXMXMX4X4XjX;.&.V...n...f N V | | BXBXBXBXBXBXBXBXBXBXBX",
"BXBXBXBXBXBXBXBXBXX.m.*X`.|.pXhXhXhXsXnXlXjXoXnXMXmXfXfXoXV.&.n.B ] g.O.BXBXBXBXBXBXBXBXBXBXBX",
"BXBXBXBXBXBXBXBXBXBX] g.o.I.].dXhXdXcXnX#X1XkXzXzXnXmXmXMXnX1X4XY.d.b.g.f.BXBXBXBXBXBXBXBXBXBX",
"BXBXBXBXBXBXBXBXBXBXV / V a.R.9X&XhXjX<X4X1X<X4XlXlXlXmXkX=.0 Q XX{ X.s.s.} BXK.J.BXBXBXBXBXBX",
"BXBXBXBXBXBXBXBXBXBXg w T.`.qXwX3XnX1X<XlXjX4X#X@X1XlXkX;.0 #.0 : ' X.g.M.} E v.u.D.BXF.BXBXBX",
"BXBXBXBXBXBXBXBXBX, ; 2 U.2X4XjXlX<X*.,XjXzXmXlX4X@X#XV.7 #.;.0 0 P X.b.B.B.8.t.y.J.H.H.G.BXBX",
"BXBXBXBXBXBXBXBXg ; O % 9 q q Q #.<X4XlXzXkXoXK.4X1Xq 7 # ! 4 6 : n } h.a.v.a.K 7.r.e.R D.x BX",
"BXBXBXBXBXBXBXs y % o % @ $ # $ 6 XX<X4XkXmXzXjX=.Q # # # 0 0 4 O BX' [ F 0.J F K 9.S T z c BX",
"BXBXBXBXBXBXu & % % % 3 , % % o % & h *.@X<X1XsX<X# # # # 4 4 O ; BXBXA F J K K 0.K E z BXBXBX",
"BXBXBXBXBX1 & o o - , z.y.< o o o O O * # : M w * $ # # # . . ; BXBXBXH.Y v 9.0.J W k.Y G.BXBX",
"BXBXBXBXy & o o % > > r.G S p k S b y o o o % o % @ @ # $ + o BXBXBXBXG.G.U S J e.T m R z BXBX",
"BXBXBXBXo % o % & 3 o o u } v.{.rXrX/.s O o o % , @ @ $ o BXBXBXBXBXBXH.m 9.d E a.m H.D.x BXBX",
"BXBXBXBX% o o = % , 1 * C Y.)..XpXpX X_.D & o % ; - % X - y BXBXBXBXBXBXT T T G.R R H.z BXBXBX",
"BXBXBXBX$ $ $ % o & 9 ( ;.2XL.{.rX{.(.{.Z.b ; > < y t < y i BXBXBXBXBXBXBXBXG.G.BXD.z BXBXz BX",
"BXBXBXBX4 4 # o % o 9 *.#X4X).{.(.x.c.(./.D < t y p b d i u BXBXBXBXBXBXBXBXBXBXBXBXBXBXz z BX",
"BXBXBXBX7 7 4 o o o 0 *.@X4XR.(.c.k.i.t.c.F < 3 y v S D v i u BXBXBXBXBXBXBXBXBXK.BXBXBXBXBXBX",
"BXBXBXBX6 6 6 * * - 9 ) oX5XE./.l.i.i.r.t.d < t u p b D b i u BXBXBXBXBXBXBXBXBXBXBXBXBXBXBXBX",
"BXBXBXBXw q w 1 - ; 3 Z K.qX^./.l.i.x.x.F t t t t i D D D p u BXBXBXBXBXBXBXBXBXBXBXBXBXBXBXBX",
"BXBXBXBX! ! Q 9 , - , s ;.`.B.x.8.D b S p y < t u t u b J H D BXBXBXBXBXBXBXBXBXBXBXBXBXBXBXBX",
"BXBXBXBX( ) ! q s ; < s ......P p & , p p y , , u u i b D D 8.H BXBXBXBXBXBXBXBXBXBXBXBXBXBXBX",
"BXBXBXBX_ #.` ! Q < y s f 0 6 > - - i BXBXp < , t u p S b b F 8.8.q.BXBXBXBXBXBXBXBXBXBXBXBXBX",
"BX>.BXBX..%.#.( ~ y 1 8 @ 0 #.Q & & t F BXBXu < < u i H 7.S S i.l.k.8.BXBXBXBXBXBXBXBXBXBXBXBX",
"BX>.BX:.j ` #.) P < 4 # 4 $.XX*.h 4 w BXBXBXBX< , t u b K 8.t.Z.Z.x.k.0.BXBXBXBXBXBXBXBXBXBXBX",
"4.BXBXe BX# # $ % * 8 # $.<XXX#.*.#.6 BXBXBXBXBXy u p b 7.i.l.A.A.Z.x.k.BXBXBXBXBXBXBXBXBXBXBX",
"<.BXBXBXBX# e o # l 2.*.<X6XOX) *.@.> BXBXBXBXBXBXy i i F y.i.l.l.z.x.i.0.BXBXBXBXBXBXBXBXBXBX",
"e BX>.BXh q r s / j.=XnXcXaXY.{ $. .7.BXBXBXBXBXBXp b p b J 9.r.r.r.8.r.0.q.BXBXBXBXBXBXBXBXBX",
"BX4.1.,.j 6 9 ~ ) =.#XzXzXqXU.f.=. .K b BXBXBXBXBXBXb p p b F J J J J 7.r.l.q.BXBXBXBXBXBXBXBX",
"BXBXBXN # . 6 Q ~ #.oXlXlX;X%X+.=.[ F b BXBXBXBXBXBXBXi p S b b S K 0.0.t.x.Z.A.Z.BXBXBXBXBXBX",
"BXBXBXBXBXBX4 q ! %.=.oXXXU.oX+.OX^ d BXBXBXBXBXBXBXBXBXp b b b b K t.i.c.Z.x.q.t.x.BXBXBXBXBX",
"BXBXBXBXBXBX# w q q q h q ! %.d.%XM u BXBXBXBXBXBXBXBXBXBXu i p p p 9.i.i.q.H p p D BXBXBXBXBX",
"BXBXBXBXBXBXBX$ + + + + # 4 @XwX$XM BXBXBXBXBXBXBXBXBXBXBXBXBXy i b 7.8.F F d i D K r.BXBXBXBX",
"BXBXBXBXBXBXBX$   + $ + 6 ( jXMX#X^ a.BXBXBXBXBXBXBXBXBXBXBXBXBXy p d p b S 7.8.q.q.9.f BXBXBX",
"BXBXBXBXBXBXBX* 4 Q #.XX4XnXMXmXjX@X$.BXBXBXBXBXBXBXBXBXBXBXBXBXBX3 u b H 9.8.H b n f S w BXBX",
"BXBXBXBXBXBXBX0 ! *.$X5X3X4XlXjX=.$.` BXBXBXBXBXBXBXBXBXBXBXBXBXBXBX2 2 8 8 3 i g f w s 9 7 BX",
"BXBXBXBXBXBX= , s !  .O.&.oXjXjX=.#.w w BXBXBXBXBXBXBXBXBXBXBXBXBXBX5 8 2 5 2 2 0 0 w w 0 6 7 ",
"BXBXBXBXBXe X o 2 q ) ;.$.oXlXzX<X=.! 0 BXBXBXBXBXBXBXBXBXBXBXBXBXBX7 4 4 4 7 7 7 6 6 6 7 7 4 ",
"BXBXBXBXj ,.:.+ * 0 ) oX#X3XmXnX#X*.Q 4 BXBXBXBXBXBXBXBXBXBXBXBXBXBXBXBXBXBXBXBXBXBXBXBXBXBXBX",
"BXBXBXBXBXl k * 2 6 Q %.=.#XlXlX*.! 4 # BXBXBXBXBXBXBXBXBXBXBXBXBXBXBXBXBXBXBXBXBXBXBXBXBXBXBX",
"BXBXBXBXBXBX$ 4 ; 6 q ! %.=.*.$.! w 4 # BXBXBXBXBXBXBXBXBXBXBXBXBXBXBXBXBXBXBXBXBXBXBXBXBXBXBX",
"BXBXBXBXBXBXBX.   # 4 6 0 Q 6 6 4 #   . BXBXBXBXBXBXBXBXBXBXBXBXBXBXBXBXBXBXBXBXBXBXBXBXBXBXBX"
};
