/* XPM */
static char *result[] = {
/* columns rows colors chars-per-pixel */
"56 64 241 2 ",
"   c #030303",
".  c #0C0C0C",
"X  c #1B160B",
"o  c #1E1D0E",
"O  c #141314",
"+  c #1B1B1B",
"@  c #1B1915",
"#  c #120E0C",
"$  c #241C0D",
"%  c #241E17",
"&  c #361717",
"*  c #341109",
"=  c #1E2113",
"-  c #2D2516",
";  c #3D2E16",
":  c #362A18",
">  c #3D311C",
",  c #1F2020",
"<  c #242424",
"1  c #2C2C2C",
"2  c #292A25",
"3  c #333333",
"4  c #3C3C3C",
"5  c #3C3833",
"6  c #373027",
"7  c #4D120B",
"8  c #780503",
"9  c #6C100F",
"0  c #43321A",
"q  c #4A361B",
"w  c #48351A",
"e  c #543C1E",
"r  c #4C2A14",
"t  c #6A251B",
"y  c #483725",
"u  c #553E22",
"i  c #523E2E",
"p  c #5A3E21",
"a  c #543B31",
"s  c #433C34",
"d  c #633427",
"f  c #2B4527",
"g  c #345529",
"h  c #326B26",
"j  c #35722A",
"k  c #2C561D",
"l  c #5D4223",
"z  c #574229",
"x  c #49453C",
"c  c #554231",
"v  c #5A4534",
"b  c #5E4A36",
"n  c #5D4C3A",
"m  c #644525",
"M  c #6A4828",
"N  c #734D2A",
"B  c #794F2E",
"V  c #7C522E",
"C  c #75512E",
"Z  c #654B34",
"A  c #624D3A",
"S  c #6B4837",
"D  c #67513E",
"F  c #6A523E",
"G  c #7E5431",
"H  c #75553A",
"J  c #6C562E",
"K  c #446B2B",
"L  c #53622A",
"P  c #3F4141",
"I  c #454545",
"U  c #4C4C4C",
"Y  c #4A4945",
"T  c #534E47",
"R  c #535353",
"E  c #5C5C5C",
"W  c #5A5854",
"Q  c #5D544C",
"!  c #6C5542",
"~  c #6E5944",
"^  c #675646",
"/  c #715945",
"(  c #755D49",
")  c #785F4B",
"_  c #655A55",
"`  c #7A634D",
"'  c #76614A",
"]  c #7E6651",
"[  c #7B6A57",
"{  c #5F6161",
"}  c #646565",
"|  c #6A6A6A",
" . c #6D6A65",
".. c #737373",
"X. c #7B7C7C",
"o. c #75716C",
"O. c #890B08",
"+. c #B80000",
"@. c #A60503",
"#. c #86382D",
"$. c #A92621",
"%. c #8C291E",
"&. c #C80101",
"*. c #DF3F3E",
"=. c #EB2121",
"-. c #EF1C1A",
";. c #80542F",
":. c #835631",
">. c #8D5C35",
",. c #875934",
"<. c #925E37",
"1. c #99643B",
"2. c #93753F",
"3. c #A36A3E",
"4. c #AA493D",
"5. c #8F5046",
"6. c #BD4E43",
"7. c #836B55",
"8. c #866E59",
"9. c #8A6E58",
"0. c #8B735D",
"q. c #947358",
"w. c #93684D",
"e. c #A66C41",
"r. c #AA6E43",
"t. c #AE7145",
"y. c #B8774A",
"u. c #B66256",
"i. c #8E7561",
"p. c #8F7A66",
"a. c #937A64",
"s. c #997F69",
"d. c #947C66",
"f. c #8F7975",
"g. c #F25343",
"h. c #C47D4D",
"j. c #C37F52",
"k. c #D46057",
"l. c #DE7A6A",
"z. c #E9766E",
"x. c #D3584C",
"c. c #B5825C",
"v. c #9B836C",
"b. c #97816A",
"n. c #9B8673",
"m. c #89837D",
"M. c #A5866D",
"N. c #B2896D",
"B. c #B78967",
"V. c #A38B74",
"C. c #AB8C74",
"Z. c #A78B76",
"A. c #B78D71",
"S. c #AB937B",
"D. c #A99079",
"F. c #B7957A",
"G. c #C88254",
"H. c #D48B5C",
"J. c #D88B5C",
"K. c #D38D65",
"L. c #C6906B",
"P. c #DD9263",
"I. c #D5966C",
"U. c #C89A79",
"Y. c #D29B74",
"T. c #DB9E75",
"R. c #DA9B76",
"E. c #D28773",
"W. c #E59969",
"Q. c #E39767",
"!. c #F3956E",
"~. c #DDA37C",
"^. c #D3A27E",
"/. c #E6A479",
"(. c #F3A97B",
"). c #F7A979",
"_. c #7F7F80",
"`. c #838383",
"'. c #8B8B8B",
"]. c #8A8783",
"[. c #988D81",
"{. c #8E9090",
"}. c #929292",
"|. c #9B9B9B",
" X c #98918A",
".X c #AD9782",
"XX c #B39B84",
"oX c #BB9E84",
"OX c #B09984",
"+X c #A49A95",
"@X c #A58888",
"#X c #BBA28A",
"$X c #BBA087",
"%X c #A7A29C",
"&X c #BFAB98",
"*X c #A3A3A3",
"=X c #AAABAB",
"-X c #ABA6A0",
";X c #B9ADA7",
":X c #BDB5AD",
">X c #B4B4B4",
",X c #BCBCBC",
"<X c #B7B8B8",
"1X c #CF9B8D",
"2X c #CCA383",
"3X c #C6A589",
"4X c #D9A886",
"5X c #D2AD93",
"6X c #E3AA83",
"7X c #E5AD88",
"8X c #F8AC85",
"9X c #ECB18A",
"0X c #F6B68C",
"qX c #F9B387",
"wX c #EDB997",
"eX c #FABC97",
"rX c #FCA591",
"tX c #C3BBB6",
"yX c #CFB6AD",
"uX c #F8A9A9",
"iX c #F69291",
"pX c #FFC19D",
"aX c #FBC6A5",
"sX c #F3C8AE",
"dX c #C8C1B9",
"fX c #BFBFC0",
"gX c #C4C4C4",
"hX c #CBCBCB",
"jX c #CCC8C4",
"kX c #D4D4D4",
"lX c #DBDBDB",
"zX c #D5D9D9",
"xX c #D3CDC6",
"cX c #E3DBD3",
"vX c #E3CEC9",
"bX c #DFE0E0",
"nX c #E3E3E3",
"mX c #EBEBEB",
"MX c #E7E9EA",
"NX c #F2F2F2",
"BX c None",
/* pixels */
"BXBXBXBXBXBXBXBXBXBXBXBXBXBXBXBXBXBXBXBXBXBXBXBX$XoX3XoX3XR.(.(.(.BXBXBXBXBXBXBXBXBXBXBXBXBXBXBXBXBXBXBXBXBXBXBX",
"BXBXBXBXBXBXBXBXBXBXBXBXBXBXBXBXBXBXBXBXBXBXoX3X5X(.(.~.2X/.wXeXeX}.X.} BXBXBXBXBXBXBXBXBXBXBXBXBXBXBXBXBXBXBXBX",
"BXBXBXBXBXBXBXBXBXBXBXBXBXBXBXBXBXBXBXBXBXoX3XeXeXpX0X5XXXOXOXoXR.o.'...E BXBXBXBXBXBXBXBXBXBXBXBXBXBXBXBXBXBXBX",
"BXBXBXBXBXBXBXBXBXBXBXBXBXBXBXBXBXBXBXBXV.oX(.).qX9X^.S.M.a.i.i.p.R } E Y BXBXBXBXBXBXBXBXBXBXBXBXBXBXBXBXBXBXBX",
"BXBXBXBXBXBXBXBXBXBXBXBXBXBXBXBXBXBXBXBXV.oX4X4XL.n.d.7.7.] ! ! A 4 I I 3 BXBXBXBXBXBXBXBXBXBXBXBXBXBXBXBXBXBXBX",
"BXBXBXBXBXBXBXBXBXBXBXBXBXBXBXBXBXBXBXn.OXXXM.i.7.` ' ! ( ) A v c ^ 3 1 BXBXBXBXBXBXBXBXBXBXBXBXBXBXBXBXBXBXBXBX",
"BXBXBXBXBXBXBXBXBXBXBXBXBXBXBXBXBXBXBX^.oXi.9.8.0.d.i.] / F D v ( n.b.BXBXBXBXBXBXBXBXBXBXBXBXBXBXBXBXBXBXBXBXBX",
"BXBXBXBXBXBXBXBXBXBXBXBXBXBXBXBXBX(.4X2Xa.0.Z.XXOXF.v.7.( b c v A / v.BXBXBXBXBXBXBXBXBXBXBXBXBXBXBXBXBXBXBXBXBX",
"BXBXBXBXBXBXBXBXBXBXBXBXBXBXBXqX(.6X3X#Xb.v.oX6X~.#XS.0.( b i a c ^ Q ( BXBXBXBXBXBXBXBXBXBXBXBXBXBXBXBXBXBXBXBX",
"BXBXBXBXBXBXBXBXBXBXBXBXBX(.~.oXC.Y.wX0XF.v./.)./..Xv.7.( v c v c v i v BXBXBXBXBXBXBXBXBXBXBXBXBXBXBXBXBXBXBXBX",
"BXBXBXBXBXBXBXBXBXBXBXBX#XF.M.b.V.7XpXqX3XS.eXeXT.v.8.! v a ! v BXi i i BXBXBXBXBXBXBXBXBXBXBXBXBXBXBXBXBXBXBXBX",
"BXBXBXBXBXBXBXBXBXBXBX#XV.C.M.M.D.C.T.!.2XF.aXaX~.D.8.A v i ( ] BXBXBXBXBXBXBXBXBXBXBXBXBXBXBXBXBXBXBXBXBXBXBXBX",
"BXBXBXBXBXBXBXBXBXBXBXXXD.2XqX(.I.5.$.-.!.qX).wX5X9XD.7.D i A 0.BXBXBXBXBXBXBXBXBXBXBXBXBXBXBXBXBXBXBXBXBXBXBXBX",
"BXBXBXBXBXBXBXBXBXBX#Xn.3X).eX0X/.F.$X6.l.iX!.5XaXpX~.F.0.A v ] s.4XBXBXBXBXBXBXBXBXBXBXBXBXBXBXBXBXBXBXBXBXBXBX",
"BXBXBXBXBXBXBXBXBXBXv.v.3X~.~.T.2XD.v.D.4.=.g.1XpX0XU.U.^.d.~ c ( i.BXBXBXBXBXBXBXBXBXBXBXBXBXBXBXBXBXBXBXBXBXBX",
"BXBXBXBXBXBXBXBXBXS.] V.#X.XXX#X$Xa.' [ 1Xz.R.l.g.l.S.N.N.BXBXBXi BXBXBXBXBXBXBXBXBXBXBXBXBXBXBXBXBXBXBXBXBXBXBX",
"BXBXBXBXBXBXBXBXBXv.7..XS.v.V.D.D.8.d $.iXuX1Xk.g.u.m.;Xb.i.BXBXBXBXBXBXBXBXBXBXBXBXBXBXBXBXBXBXBXBXBXBXBXBXBXBX",
"BXBXBXBXBXBXBXBXBX] ] M.0.0.8.d.v.s.S @.uXuXz.M.E.k.dXhXjX+XBXBXBXBXBXBXBXBXBXBXBXBXBXBXBXBXBXBXBXBXBXBXBXBXBXBX",
"BXBXBXBXBXBXBXBX/ Z 7.` / ` ) 8.N.T.q.w.5.g.rX5XC.x.z.lXkX+XBXBXBXBXBXBXBXBXBXBXBXBXBXBXBXBXBXBXBXBXBXBXBXBXBXBX",
"BXBXBXBXBXBXBXBX! ! s./ ! ] ( Z.oX6XB.s.i.O.#.eX4XF.I.C.| n.BXBXBXBXBXBXBXBXBXBXBXBXBXBXBXBXBXBXBXBXBXBXBXBXBXBX",
"BXBXBXBXBXBXBXBX! ) D./ 0.M.0.D..XoXi.8.@X+Xf.R.(.~.2X/.T.N.BXBXBXBXBXBXBXBXBXBXBXBXBXBXBXBXBXBXBXBXBXBXBXBXBXBX",
"BXBXBXBXBXBXBXBX/ 9.I.q.S.b.0.a.s.a.~ ] @X%XjXOX5X/.4X(.^.S.BXBXBXBXBXBXBXBXBXBXBXBXBXBXBXBXBXBXBXBXBXBXBXBXBXBX",
"BXBXBXBXBXBXBXBX` 0.~.C.S.' ` 7.) ( b ) n.M.7.9.2X8X8X6XF.tXMXNXmXmXmXmXnXlX,X=XBXBXBXBXBXBXBXBXBXBXBXBXBXBXBXBX",
"BXBXBXBXBXBXBXBX` d.oX$X~./ ! F ! ! A b ) Z.a.i.N.eXaXaX(.sXvXzXzXlXMXnXmXmXNXNXgX*XBXBXBXBXBXBXBXBXBXBXBXBXBXBX",
"BXBXBXBXBXBXBXBXi.v.b.oXwXq.v b Z v A b v ` 0.8.M.0X0XsX9X).).5XyXyX%XfXlXzXMXnX*X}.,XBXBXBXBXBXBXBXBXBXBXBXBXBX",
"BXBXBXBXBXBXBXBXM.8.A 9.Y.4Xq.^ ! ! b v b D ( ` 0.F.U.V.U.~./.6X6X~.D  .bXkXbX>X}.,XkXbXmXnXgXfXBXBXBXBXBXBXBXBX",
"BXBXBXBXBXBXBXBX.Xb.7.] ` C.7XF.8.( v v b D D ' 7.0.v.v.v.C.S.S.OX$XXXm.nXlXfXm.*XkXkXkXzXlXcXnXnXnXkXtXzXBXBXBX",
"BXBXBXBXBXBXBXBXc.S.S.d.[ ~ b.4XN.~ v b n b b ` ~ 8.0.S.S.S.S.b.9.a.%XbXlXMX=X} `.*X,XhXzXkXzXkXkXkXlXnXnXmXgXBX",
"BXBXBXBXBXBXBXJ.P.K.K.L.V.` F U.2X0.! A A A ` ~ D 9.:XcXcXlXjXtX:X:XhXbXbXMX*X{.<XjXgX>X>X=X<XhXzXzXzXlXlXmX}.BX",
"BXBXBXBXBXBXH.J.G.G.G.W.Y.M.8.B.L.7.C H ! ~ F v m H E R R R E ..{.=XlXMXmXkX'.`.}.}.'.}.>XgXhXnXmXmXhX|.X.`...E ",
"BXBXBXBXBXr.c.y.e.h.J.P.Q.K.B.M.q.:.<.:.! 7.A Z m z 3 O @ @ + , 1 3 U { ..} _.,XgXkXgX*X`...}.=XhXlXkXkXkX} | U ",
"BXBXBXBXBXBX3.1.1.H.P.Q.J.J.P.G.h.t.3.:.Z BXBXb m l z + + + + + + + + + - 3 X.>XgXgXgXhXhXhX,X*X'.'.|.jX>XR R I ",
"BXBXBXBXBXBXy.t.e.H.W.W.W.Q.H.J.P.c.3.:.q > BXK V m > > : % + + + + + + O , 1 < 1 < 1 4 I ..'.>XgXhXkXnX`.4 3 BX",
"BXBXBXBXBXy.P.j.h.K.W.P.J.j.t.t.3.>.1.>.e l l K 1.C = + O . . O O O + + + , < + + + + + + + + 1 U ..'.}.W 3 BXBX",
"BXBXBXBXBX<.G.t.y.>.j.r.<.>.:.,.V N N M l e l K :.2.f # # O # + + + + + + , , + + + + + + + + + + + + < 3 BXBXBX",
"BXBXBXBX[.N.A.H >.<.>.<.:.:.N N M V G m q q l k J L h f f 1 1 < , , + + + , < + + + + < + + + + + + + 1 1 BXBXBX",
"BXBXBXBX<XhX=X..2 G G C H r.u m ;.V N e 0 q l k h h h j j j f 3 1 < + + + < BXBXBXBX1 < + + + + + + < < BXBXBXBX",
"BXBXBXBX| >X=X,Xf.y l > T Z - 0 N V m q ; q l BXBXBXBXBXBXBXBXBXBXBXBXBXBXBXBXBXBXBXBXBXBXBXBXBXBXBXBXBXBXBXBXBX",
"BXBXBXX 1 |.gXhXhXU > y  .4 + = 0 M l w 0 q l BXBXBXBXBXBXBXBXBXBXBXBXBXBXBXBXBXBXBXBXBXBXBXBXBXBXBXBXBXBXBXBXBX",
"BXBXBX: - '.MXhXgX].6 : x } 4 : : e e 0 ; q l BXBXBXBXBXBXBXBXBXBXBXBXBXBXBXBXBXBXBXBXBXBXBXBXBXBXBXBXBXBXBXBXBX",
"BXBXBXe.> ..nXkXjX>X6 - I {._ 0 > u e > ; e BXBXBXBXBXBXBXBXBXBXBXBXBXBXBXBXBXBXBXBXBXBXBXBXBXBXBXBXBXBXBXBXBXBX",
"BXBXBXy.w.T tXbXkXlXxXjX,X=Xm.b 0 5 y > w l BXBXBXBXBXBXBXBXBXBXBXBXBXBXBXBXBXBXBXBXBXBXBXBXBXBXBXBXBXBXBXBXBXBX",
"BXBXBX,.G.v '.nXnXbXnXnXlXhX|.' v b x y q l BXBXBXBXBXBXBXBXBXBXBXBXBXBXBXBXBXBXBXBXBXBXBXBXBXBXBXBXBXBXBXBXBXBX",
"BXBXBXy G.G 1 =XmXbXbXbXbXzXdXC.0.` _ c l BXBXBXBXBXBXBXBXBXBXBXBXBXBXBXBXBXBXBXBXBXBXBXBXBXBXBXBXBXBXBXBXBXBXBX",
"BXBX* r C B # m.MXMXMXbXbXbXkX3X$XS.%Xn e BXBXBXBXBXBXBXBXBXBXBXBXBXBXBXBXBXBXBXBXBXBXBXBXBXBXBXBXBXBXBXBXBXBXBX",
"BX$ r 8 y p X W >XMXmXnXMXbXbXhX:X;X<Xx ; l BXBXBXBXBXBXBXBXBXBXBXBXBXBXBXBXBXBXBXBXBXBXBXBXBXBXBXBXBXBXBXBXBXBX",
"$ 9 - X $ - - X 4 jXNXNXmXmXmXmXzX=X`.W ; e l BXBXBXBXBXBXBXBXBXBXBXBXBXBXBXBXBXBXBXBXBXBXBXBXBXBXBXBXBXBXBXBXBX",
"9 +.BXBX$ - $ @ + } {.|.,XkXzX<X@X_ Y =Xo.z M C BXBXBXBXBXBXBXBXBXBXBXBXBXBXBXBXBXBXBXBXBXBXBXBXBXBXBXBXBXBXBXBX",
"O.+.BXBX= @ X @ + O O < P W { P * t f.bXhXS B :.G BXBXBXBXBXBXBXBXBXBXBXBXBXBXBXBXBXBXBXBXBXBXBXBXBXBXBXBXBXBXBX",
"BX%.&.&.&.O.* x E 4 + + < & t { '.yXvXnXlX[.N B B l BXBXBXBXBXBXBXBXBXBXBXBXBXBXBXBXBXBXBXBXBXBXBXBXBXBXBXBXBXBX",
"BXZ #.t 8 O.y  .*X| *XX.} a $.1XlXzXzXnXlX<Xf.B N l m BXBXBXBXBXBXBXBXBXBXBXBXBXBXBXBXBXBXBXBXBXBXBXBXBXBXBXBXBX",
"BXBXt d 8 8 7 1 4 3 { ,XfX{.@X;X>X<XkXlXnXnX>Xp M u m G BXBXBXBXBXBXBXBXBXBXBXBXBXBXBXBXBXBXBXBXBXBXBXBXBXBXBXBX",
"BXBXBXBXBX& % , + 1 , E |.*XR { '.=X<XfXgXgX|.Y M :.:.l l BXBXBXBXBXBXBXBXBXBXBXBXBXBXBXBXBXBXBXBXBXBXBXBXBXBXBX",
"BXBXBXBXBXBX< 1 < , + , < 1 . 1 | '.X.} U Y 5 6 V 1.G w w M BXBXBXBXBXBXBXBXBXBXBXBXBXBXBXBXBXBXBXBXBXBXBXBXBXBX",
"BXBXBXBXBXBXBX< , + + + + , + O 3 U I 3 1 , 1 Z w.>.;.m u l BXBXBXBXBXBXBXBXBXBXBXBXBXBXBXBXBXBXBXBXBXBXBXBXBXBX",
"BXBXBXBXBXBXBXBXBXBX+ + + + , +         + I | |.%X' m 0 q M :.c BXBXBXBXBXBXBXBXBXBXBXBXBXBXBXBXBXBXBXBXBXBXBXBX",
"BXBXBXBXBXBXBXBXBXBXBX2 & + , < < 2 4 4 U X.}.hXkX=X[ l B v c Z 5 BXBXBXBXBXBXBXBXBXBXBXBXBXBXBXBXBXBXBXBXBXBXBX",
"BXBXBXBXBXBXBXBXBXBXBXBX7 O < 4 I { ......`.*X=X|.X._ c s p 5 1 1 1 BXBXBXBXBXBXBXBXBXBXBXBXBXBXBXBXBXBXBXBXBXBX",
"BXBXBXBXBXBXBXBXBXBXBX7 7 7 < # O 3 I I I U R W R U _ T 1 1 3 1 1 1 1 BXBXBXBXBXBXBXBXBXBXBXBXBXBXBXBXBXBXBXBXBX",
"BXBXBXBXBXBXBXBXBXBXBXBX9 7 ,   . + < < 3 4 R ..X.{.`.Y 1 3 1 3 3 1 1 < BXBXBXBXBXBXBXBXBXBXBXBXBXBXBXBXBXBXBXBX",
"BXBXBXBXBXBXBXBXBXBXBXBXBXBXO . . + < 3 I | {.>X<X,X'.4 1 < 1 < < < < BXBXBXBXBXBXBXBXBXBXBXBXBXBXBXBXBXBXBXBXBX",
"BXBXBXBXBXBXBXBXBXBXBXBXBXBXO . . < 4 I R | '.=X*X=X`.4 1 BXBXBXBXBXBXBXBXBXBXBXBXBXBXBXBXBXBXBXBXBXBXBXBXBXBXBX",
"BXBXBXBXBXBXBXBXBXBXBXBXBXBX. . O < 3 4 U | `.|.=X,X|.I BXBXBXBXBXBXBXBXBXBXBXBXBXBXBXBXBXBXBXBXBXBXBXBXBXBXBXBX",
"BXBXBXBXBXBXBXBXBXBXBXBXBXBXBX      . . . 2 3 Y U R 3 O BXBXBXBXBXBXBXBXBXBXBXBXBXBXBXBXBXBXBXBXBXBXBXBXBXBXBXBX"
};
