/* XPM */
static char *_84dd73ff04044f2d48719bf40513fealO0wEX3lJgGzSsze[] = {
/* columns rows colors chars-per-pixel */
"64 64 138 2 ",
"   c #361503",
".  c #3B1906",
"X  c #3E1C08",
"o  c #431D05",
"O  c #431F08",
"+  c #462006",
"@  c #4A2406",
"#  c #54331C",
"$  c #58361E",
"%  c #6A3C15",
"&  c #673E1C",
"*  c #683F1D",
"=  c #69411E",
"-  c #75461D",
";  c #77481E",
":  c #78491F",
">  c #6E4522",
",  c #714722",
"<  c #734A27",
"1  c #7D4E24",
"2  c #744C29",
"3  c #784F2A",
"4  c #7F5026",
"5  c #7B522D",
"6  c #7E5630",
"7  c #815127",
"8  c #85562C",
"9  c #87582D",
"0  c #88592E",
"q  c #815731",
"w  c #845B35",
"e  c #8D5F36",
"r  c #8B5C32",
"t  c #845C38",
"y  c #845D38",
"u  c #855D38",
"i  c #855D39",
"p  c #855E39",
"a  c #865E38",
"s  c #875E38",
"d  c #875F38",
"f  c #865E39",
"g  c #865F39",
"h  c #875F39",
"j  c #865E3A",
"k  c #865F3A",
"l  c #875F3A",
"z  c #855D39",
"x  c #885F39",
"c  c #885F39",
"v  c #905F33",
"b  c #8F6134",
"n  c #8C6037",
"m  c #8D6037",
"M  c #8E6036",
"N  c #8F6236",
"B  c #87603A",
"V  c #87603B",
"C  c #87603B",
"Z  c #886039",
"A  c #8A6038",
"S  c #8B6039",
"D  c #88603A",
"F  c #89603A",
"G  c #88603B",
"H  c #88613B",
"J  c #89613B",
"K  c #8C6139",
"L  c #8D6139",
"P  c #8E6238",
"I  c #8C613A",
"U  c #8D623A",
"Y  c #8D633A",
"T  c #8F643B",
"R  c #89623C",
"E  c #8B613A",
"W  c #916134",
"Q  c #906135",
"!  c #916236",
"~  c #936336",
"^  c #936537",
"/  c #916236",
"(  c #906439",
")  c #926438",
"_  c #936438",
"`  c #936439",
"'  c #91643A",
"]  c #946538",
"[  c #956538",
"{  c #956639",
"}  c #966739",
"|  c #976739",
" . c #95673A",
".. c #96673C",
"X. c #93663B",
"o. c #96683C",
"O. c #97683C",
"+. c #96683D",
"@. c #97683D",
"#. c #97693C",
"$. c #98693B",
"%. c #99693C",
"&. c #98693D",
"*. c #986A3D",
"=. c #9A6B3D",
"-. c #996B3E",
";. c #996B3F",
":. c #9B6C3D",
">. c #996C3F",
",. c #9A6C3F",
"<. c #9D6E3F",
"1. c #9E6F3F",
"2. c #996B3E",
"3. c #9A6B40",
"4. c #9A6C40",
"5. c #9A6D40",
"6. c #9A6C41",
"7. c #9D6E40",
"8. c #9C6F41",
"9. c #9C6F42",
"0. c #9B6E41",
"q. c #9D7143",
"w. c #9D7144",
"e. c #9E7145",
"r. c #9F7145",
"t. c #9F7346",
"y. c #9E7043",
"u. c #A07141",
"i. c #A17242",
"p. c #A17343",
"a. c #A17444",
"s. c #A17544",
"d. c #A07445",
"f. c #A27444",
"g. c #A37544",
"h. c #A17445",
"j. c #AB7F4C",
"k. c #A87D4D",
/* pixels */
"0 r 0 0 0 0 0 0 0 0 0 0 0 0 0 0 0 0 0 0 0 0 0 0 r 0 0 0 0 0 0 0 0 q 0 0 0 0 0 0 0 0 0 0 0 0 0 0 8 0 0 0 0 0 0 0 0 0 0 0 0 0 0 0 ",
"0 0 9 0 0 0 0 0 0 0 0 0 0 0 0 0 9 0 0 0 0 0 0 0 9 0 0 0 0 0 0 0 0 0 0 0 0 0 0 0 0 0 0 0 0 0 0 0 0 0 0 0 0 0 0 0 0 0 0 0 0 0 0 0 ",
"0 0 0 0 0 0 0 0 8 0 0 0 0 0 0 0 0 0 0 0 9 0 0 0 0 0 0 0 0 0 r 0 0 0 0 0 0 8 0 0 0 0 0 0 0 0 0 0 0 0 0 0 0 0 0 0 0 0 0 0 0 0 0 0 ",
"0 0 9 0 0 0 0 0 0 0 0 0 0 0 0 0 0 0 0 0 0 0 9 0 0 0 0 0 0 0 0 0 0 0 r 0 0 0 0 0 0 0 0 0 0 0 0 0 8 0 0 0 0 0 0 0 0 0 0 0 0 0 0 0 ",
"0 0 0 0 0 0 0 0 0 0 0 0 0 0 0 0 0 0 0 0 0 0 0 0 0 0 0 0 0 0 0 0 0 0 8 0 0 0 0 0 0 9 9 0 0 0 0 q 0 0 0 0 0 0 0 0 0 9 9 0 0 0 0 0 ",
"0 0 0 0 0 0 9 0 0 0 0 0 0 0 0 0 9 9 9 0 0 0 0 r #.#._ r 0 0 0 q 0 0 0 0 0 0 0 0 0 0 9 0 0 0 0 r 0 0 9 9 9 0 0 0 9 0 0 0 0 0 0 0 ",
"0 0 0 0 0 0 0 0 0 0 0 r 0 0 0 b n ~ ~ $.,.,.w.8 - , 3 q q v 6.e.3.e.9.6.3.e v e d e e ' @.;.3.p.r.e 0 3.3...e 0 0 0 0 0 0 0 9 0 ",
"0 0 0 0 0 0 0 $.9 4 5 5 6 5 Z $ # 6 < > = & = 2 3 2 2 3 3 < 3 . o & > & * > > , < , > * * * < . . x 3 > , , < w ^ 0 0 0 0 0 0 9 ",
"9 0 0 9 9 8 r 3 < < < < < < y X X w < < < < < 2 < < < < < < w o O , t < < < < < < < < < < < t o o S < < < , 2 > r 0 0 0 r 0 0 0 ",
"0 0 0 0 0 0 $.= < < < < < < y + o y < < < < < < < < < < < < t o O < w < < < < < < < < < < < t X + a 2 < 2 < < < 2 ! 9 0 9 9 0 0 ",
"0 0 0 0 0 0 t.= < < < < < < y X o h < < < < < < < < < < < < t o O q 3 2 < < < < < 2 < < < < t o + 2 a < 2 < 2 < - #.9 0 0 0 0 0 ",
"0 0 0 0 0 ^ r 2 < < < < < , Z o X y < < < < < < < < < < < < w o O e < < < < < < < < < < < < t o @ , K < < < < < = 0.9 9 r 0 0 9 ",
"0 0 0 0 r s.- 5 < < < < < < B X o y < < < < < < < < < < < < h o o I < < < < < < < < < < < < t o @ = R < < < < 2 = 0.0 0 0 0 0 9 ",
"r 9 0 0 s.4 7 3 < < < < < < Z o o h < < < < < < < < < < < 2 h o o x < < < < < < < < < < < 2 t o @ , A < < < < < & 7.0 0 0 9 0 0 ",
"0 0 0 ! ! 4 9 2 < < < < < < y o O h < < < < < < < < < < < < B o o j < < < < < < < < < < < < h o @ - A < < < , < = q.0 0 0 0 0 0 ",
"0 0 0 :.7 7 9 2 < < < < < < Z X O j < < < < < < < < < < < < B o o h < < < < < < < < < < < < t o @ = A 2 < 2 < 2 2 n s.0 0 0 0 0 ",
"0 0 0 ^ 7 8 9 2 < < < < < < h o o h < < < , < < 2 < < < < < B o X y < < < < < < < < < < < < y o @ > R < < < < < < 3 8 o.0 0 0 0 ",
"0 9 0 $.0 7 9 2 < < < < < < h o O h 2 < < 2 < < < < < < < 2 Z + o y < < < < < < < < < < < < y o @ , ( < < < < < < 8 1 ,.0 0 0 0 ",
"0 8 0 0 s.8 7 2 2 < < < < < y X O d 2 < 2 < < < < < < < < 5 q + X a < < < < < < < < < < < < y o @ < R < < < < < < 9 4 o.r 0 0 0 ",
"0 0 0 0 0 j.- 5 < < < < < < j o O d , 2 < < < < < < < < < A 3 @ o a < < < < < < < < < < < < a o @ 9 5 < < < < < 2 9 4 X.W 0 0 0 ",
"0 9 0 0 9 u.1 5 < < < < < < h o O a 2 < < < < < < < < < < R , + o y < < < < < < < < < < < < B o + B < < < < < < 2 8 7 ^ W 0 0 0 ",
"r 0 0 9 0 1.- 5 < < < 2 < < h o O a < < < 2 < < < < < < 2 R , @ o y < < < < < < < < < < < < B X o B < < < < < < 2 8 1 | W 0 9 0 ",
"0 0 r 9 9 p.- 5 < < < < < < h o o d < < < < 2 < < < < < < n , @ o y < < < < < < < < < < < < B o o B < < < < < < < 8 7 $.0 0 0 0 ",
"0 0 0 0 0 7.- 3 < < < < < < B o o h < < < < < , < < < < 2 A > @ o y < < < < < < < < < < < < S o o B < < < < < < < 8 1 u.0 0 9 0 ",
"0 0 0 0 0 ,.- 5 < < < < < 2 a + o a < < < 2 < < < < < < < A < + o h < < < 2 < < < < < < < < a o o B < < < < < < < 8 1 1.9 0 0 0 ",
"8 0 0 0 0 -.: 3 < < < < < q 5 @ o t < < < < < < < < < < 2 q 5 + o y < < < < < < < < < < < < w + o B < < < < < < < 8 4 :.0 0 0 0 ",
"0 0 0 0 0 0.; 3 < < < < < d 2 + o t < < < < < < < < < < < 2 w o + 5 5 < < < < < 2 < < < < Z 5 + o 6 < < < < < < < 4 9 W 0 0 0 0 ",
"0 0 0 0 0 q.; 2 < < < < < S , @ o a < < < < < 2 < < < < < < t o @ < A < < < < < < < < < < Y 2 @ O B < < < < < < 2 4 X.A 0 0 0 0 ",
"0 0 0 0 9 -.1 2 < < < < < S < + o t < < < < < < < < < < < < h o @ , e 2 2 < 2 < < < < < < Y > @ O B < < < 3 < < 3 : q.9 0 0 0 0 ",
"0 0 0 0 r 9 9 2 < < < < < K > @ o h < < < < < < < < < < < < h o @ > K 2 < < < < < < < < < Y < @ o 6 < < < < < < 3 : 1.0 0 0 0 0 ",
"0 0 0 0 ~ 8 8 2 < < < < < A 2 @ o t < < < < < < < < < < < < y X @ > w 3 < < < < < < < < 3 ' < @ O V < < < < < < 2 9 b 0 0 0 0 0 ",
"9 0 0 0 v 0 7 2 < < < < 2 q 5 @ o t < < < < < < < < 2 < < < y o @ > d < < < < , < < < 2 3 q > @ O 6 < < < < < < < R 0 0 0 0 0 0 ",
"0 0 0 9 r N 4 2 < < < 2 < 2 a + O i < < < < < < < < < < < < t o @ , K 2 2 2 < < < 2 2 < 5 q > @ o y < < < < < < = 5.0 9 0 0 0 0 ",
"0 0 0 9 9 #.; 3 < < < < < < S o . i < < < < < < < < < < < < y o @ > K < < < < < < < < < t 5 < @ o a < < < < < 2 = #.0 9 0 9 0 0 ",
"0 0 0 0 r y.- 5 < < < < < < h o O h < < < < < < < 2 < < > < t o @ > ' 2 < 2 < < < < < < w 3 - @ o y < < < < < < & #.9 0 0 0 0 0 ",
"0 0 0 0 0 r 9 5 < < < < < < w o o t < < < 2 < < < < < < < < t o @ > X.< < < < < < < < < w 2 > @ o y < < < < < < & #.w 0 9 0 0 9 ",
"0 0 0 0 0 9 ,.= < < < < < < y o o h < < < < < < < < < < 2 , h o @ 2 x < < < , < < < < < w 2 , @ o w < < < < < < = o.9 0 0 9 0 0 ",
"0 0 0 0 9 r t.= < < < < < < B o o h < < < < < < < < < < < 2 h o @ x 2 < < < < < < < < < q 6 , @ X t < < < < < 2 = o.0 0 0 0 0 0 ",
"0 0 0 0 0 9 >.= < < < < < < B o O j > < < < < < < < < < 2 , x o o R < < < < < < < < < < 3 e , @ o y < < < < < < = ^ 0 0 0 0 9 0 ",
"0 0 0 0 0 9 ,.> < < < < < < B o o j < < < < < < < < < < 2 2 d o O R < < < < < < < < < < < .., @ o w < < < 2 < < = ^ 9 0 0 9 0 0 ",
"9 0 0 0 0 0 -.> < < < < < < y o o j < < < < < < < < < < < < d O o h < < < < < < < < < < 2 { , @ X B < < < < < < = X.0 0 0 0 0 0 ",
"0 0 0 0 0 0 -.> < < < < < < y o o j < < < < < < < < < < < 3 r O o a < < < < < < < < < < 2 d 5 O X B < < < < < < = X.0 8 0 0 0 0 ",
"0 0 0 0 0 0 ,.= < 2 < < < < B o O x < < < < < < < < < < < 2 t O o h < < < < < < < < < < 2 3 w O + w < < < < < < = X.0 0 0 0 0 0 ",
"0 0 0 0 0 0 ,.= < < < < < < y X O x < < < < < < < < , < < 3 t O o h < < < < < < < < < < < 3 e O X w < < < < < < = o.0 0 0 0 0 0 ",
"0 0 0 0 0 0 -.* < < < < < < y o O a < < < < < < 2 < < < 2 2 a O o h < < < < < < < < < < < < x o + Z , , < < < < = >.r 9 0 0 9 0 ",
"0 0 0 0 0 0 -.& < < < < < < h o O a 2 < < < < < < 2 2 , , 2 d O X h < < < < < < < < < < < < h o X w < < < < < < = >.9 9 0 0 0 0 ",
"0 0 0 0 0 0 -.* < < < < < < y o + r 2 < < < < < 2 , 2 < < 2 j O o h < < < < < < < < < < < < j O + 6 < < < < < < = o.9 r 9 9 9 0 ",
"0 0 0 0 0 0 ,.& < < < < < < y o + w < < < < < < < < < < < < x o o t < < < < < < < < < < < < j o O B < < < < < < - :.9 9 9 9 9 0 ",
"0 0 9 0 0 0 -.* 2 < < < < < h o O t 2 , < < < < < < < < < < j o o j < < < < < < < < < < < < h o O 6 2 < < < < < , +.0 0 0 0 0 9 ",
"0 0 0 0 0 0 -.* < < < < < < t o o h 2 < < 2 < < < < < < < < j O o j < < < < < < < < < < < < y o O B < < < < < < , o.0 0 0 0 0 0 ",
"0 0 0 0 0 0 -.> < < < < < < y o o h < < < < < < < < < < < < h o o j < < < < < < < < < < < < j o O B < < < < < < < N 0 0 9 9 9 0 ",
"0 0 0 0 0 0 -.= < < < < < < h o o j < < < < < < < < < < < > h o o t < < < < < < < < < < < < h o o B < < < < < < 3 ^ 0 0 0 r 9 9 ",
"0 0 9 0 0 0 $.= < < < < < < h X . j < < < < < < < < < < < < h o o t < < < < < < < < < < < < h o o B 2 < < < < < 4 b 9 0 9 r 9 9 ",
"0 0 0 0 0 0 $.> < < < < < < V o o t < < < < < < < < < < < < t o O t < < < < < < < < < < < < y o + 6 < < < < < < 3 W 0 0 0 0 0 0 ",
"0 0 0 0 0 0 { , < < < < < < S o o i < < < < < < < < < < < < t o o w < < < < < < < < < 2 < < t o + 6 2 < < < < < 3 A 0 0 0 0 0 9 ",
"0 0 0 0 0 0 0 5 < < < < < 5 6 + o i < < < < , < < < < < < < t O o t < < < < < < < < 2 < < < t o + 6 2 2 < < < < 0 9 9 0 0 0 0 0 ",
"0 0 0 0 0 0 0 { 5 > & & = 6 < + O j = & * * * - * & & & & & < . . 3 , 3 8 8 5 6 8 5 5 > * * 2   . = > > , 2 5 r N 0 0 9 9 0 0 0 ",
"0 0 0 0 0 0 0 0 r X.#.' ,.,.- % , e 3.3.3.3.;.;.3.3.3.3.3.3.3.r.9.3.k.1 1 3 8 7 7 : 3 7.7.-.3.0.7.q.,.$.^ n r 0 0 0 0 0 9 0 0 9 ",
"0 0 0 0 0 0 0 0 9 r 9 r 0 r q.t.3.0 0 0 0 0 0 8 0 0 0 0 9 0 0 0 w 0 0 u.7 7 1 1 7 $.$.0 r 0 0 0 0 9 0 0 0 0 0 0 0 0 0 0 0 0 r 8 ",
"8 0 0 0 0 0 0 0 9 9 9 0 0 0 9 9 9 0 0 0 0 0 0 0 0 0 9 0 0 0 0 0 0 0 0 r ..v { @.%.r 0 0 0 0 0 0 0 0 0 0 0 0 0 9 0 0 0 0 0 0 0 0 ",
"0 0 0 0 0 0 0 0 0 0 0 0 0 0 0 0 0 0 0 0 0 0 0 0 0 0 0 0 0 0 0 0 0 0 0 0 r 0 0 0 0 0 0 9 0 0 0 9 0 0 0 w 0 0 0 0 0 0 0 0 0 0 0 0 ",
"0 0 0 0 9 0 0 9 0 0 0 0 0 0 0 0 9 0 0 0 0 9 0 0 9 9 9 0 9 0 0 8 8 9 9 0 9 9 9 0 0 0 0 0 0 9 0 0 0 0 9 9 0 0 0 0 0 0 0 0 0 0 0 0 ",
"0 0 0 0 0 0 r 0 0 0 0 0 0 0 0 0 0 0 0 0 0 0 0 0 0 0 0 0 0 0 0 0 0 0 0 0 0 0 0 0 0 0 0 0 0 0 9 0 0 0 0 0 0 0 0 0 0 0 0 0 0 0 0 0 ",
"0 0 0 0 0 0 0 0 0 0 8 0 0 0 0 0 0 0 0 9 9 0 0 0 0 0 0 0 0 0 0 0 0 0 0 0 0 0 0 0 0 0 0 9 0 9 0 0 0 0 0 9 8 0 0 9 9 0 0 8 0 8 0 0 "
};
