/* XPM */
static char *_cd91cb4cfed428e80de44b9d355f743hqu7irHCMZ31jbgj[] = {
/* columns rows colors chars-per-pixel */
"64 64 168 2 ",
"   c #8F5731",
".  c #945C36",
"X  c #975F39",
"o  c #95623D",
"O  c #9B633D",
"+  c #8E6245",
"@  c #8C654B",
"#  c #8F694E",
"$  c #946443",
"%  c #9D6641",
"&  c #9F6843",
"*  c #956748",
"=  c #92694C",
"-  c #857D40",
";  c #8B7E44",
":  c #9D7346",
">  c #957A47",
",  c #9E7548",
"<  c #957E48",
"1  c #9A7B49",
"2  c #896750",
"3  c #8D6D57",
"4  c #946D52",
"5  c #947057",
"6  c #94735A",
"7  c #A46C46",
"8  c #A76F48",
"9  c #A07147",
"0  c #A77049",
"q  c #A9714B",
"w  c #937661",
"e  c #977962",
"r  c #997B64",
"t  c #309F28",
"y  c #35A32C",
"u  c #38A52F",
"i  c #3BA631",
"p  c #3EAA34",
"a  c #41A736",
"s  c #41AC37",
"d  c #45AE3A",
"f  c #4AAE3D",
"g  c #47B03B",
"h  c #4AB13D",
"j  c #6D9E44",
"k  c #779D4A",
"l  c #5CA240",
"z  c #5AAD44",
"x  c #4DB441",
"c  c #51B644",
"v  c #54B946",
"b  c #57B74A",
"n  c #56BA48",
"m  c #58B94A",
"M  c #58B948",
"N  c #5BBC4C",
"B  c #5BBE4C",
"V  c #5CBF4D",
"C  c #5EBE4F",
"Z  c #5BBC4D",
"A  c #5DB851",
"S  c #5DBF51",
"D  c #69A449",
"F  c #6CAA4B",
"G  c #65B44E",
"H  c #7DA551",
"J  c #79AC53",
"K  c #7BAF57",
"L  c #66B850",
"P  c #61BF51",
"I  c #63BE56",
"U  c #65BF54",
"Y  c #61BF52",
"T  c #69BE55",
"R  c #74B456",
"E  c #78B055",
"W  c #76B659",
"Q  c #7AB65B",
"!  c #7DB55C",
"~  c #78BE5F",
"^  c #5FC152",
"/  c #62C34F",
"(  c #62C152",
")  c #62C252",
"_  c #65C253",
"`  c #64C155",
"'  c #65C256",
"]  c #66C056",
"[  c #67C456",
"{  c #64C255",
"}  c #67C058",
"|  c #66C458",
" . c #6BC55B",
".. c #6FC95E",
"X. c #6CC95A",
"o. c #79C361",
"O. c #74CB62",
"+. c #76CD62",
"@. c #73CB63",
"#. c #79CB67",
"$. c #7BCC6A",
"%. c #7CCD6A",
"&. c #7FCC6E",
"*. c #7BCB69",
"=. c #7BD066",
"-. c #7DD16B",
";. c #8B8A4B",
":. c #95854C",
">. c #98814C",
",. c #99824D",
"<. c #84974E",
"1. c #948F51",
"2. c #9C8A53",
"3. c #869C53",
"4. c #8B9953",
"5. c #909554",
"6. c #9A965B",
"7. c #939B59",
"8. c #85A054",
"9. c #8EA35B",
"0. c #8BAE5F",
"q. c #86B15E",
"w. c #9E826D",
"e. c #A18771",
"r. c #A38974",
"t. c #A78E78",
"y. c #AA8F79",
"u. c #A9927E",
"i. c #B0947C",
"p. c #9BA664",
"a. c #95AC64",
"s. c #85B762",
"d. c #8AB261",
"f. c #83BA62",
"g. c #88BD67",
"h. c #8EB96C",
"j. c #91B265",
"k. c #9ABC71",
"l. c #8CC36D",
"z. c #89C86F",
"x. c #87CF70",
"c. c #8CCD72",
"v. c #87D174",
"b. c #86D274",
"n. c #8CD475",
"m. c #AF9A86",
"M. c #B29A84",
"N. c #B89D84",
"B. c #B39D8A",
"V. c #BDA087",
"C. c #B6A28C",
"Z. c #BCA48D",
"A. c #BAA690",
"S. c #BDAA96",
"D. c #C2A68C",
"F. c #C5AA8F",
"G. c #C3AD94",
"H. c #C8AF95",
"J. c #C1AE9A",
"K. c #C7B097",
"L. c #C8B297",
"P. c #C6B39B",
"I. c #CAB59C",
"U. c #CBB89F",
"Y. c #C6B4A0",
"T. c #CAB7A2",
"R. c #CCBAA3",
"E. c #CEBDA9",
/* pixels */
"j j j j D j j j j j j j j j j j D j j j j j j j j j j j j j j j j j j j j j j j j j j j j j j j j j j j j j j j j j j j j j j j ",
"h h f h h h h c f f h h h h h h x h h h h h c h h h h h h g h h h h h h h h h h x x x d x f h x x h h h h g h h h h h f g c h h ",
"g g d g g g h c s d h f g g g f x g x g g s d h g g h f g d g g f g d f g g f g g g d d d d d h h d f d d d d d h f h g d f h h ",
"d h d d h h c n d d h f d f d d g g h p g g s d h f g d g g g g d h g d d d d f d d d d d f g d g h d f g d g h h h h g g f g g ",
"d h d d g c u p g d g g g d d g g g g g g h p g g g h h g g h g d d g g g d d g x x p d g g g x d h g h g d d h h g s d d g g g ",
"d h h h h n i d d d d g d f g h p g g g g h g g g h h g g g s h g d g d g d d g x x d d d d d a g c h h g g g h d d g g g g s g ",
"d x c x n d s g g g g g d g g g g g g g h g g g g s p h h h d s g d g g g g f g x d d d d g p a d p g d c h c c h g d f h d d d ",
"x i p d h p d d g d h g g d d d g p g g p p g g h p p p h g d d h d g d d g g / y x d d d d I x d g p h c n N u p h g g d d d g ",
"c p p d d s u s d p d h h h d s p g g p g g p h x p g p h h g g g g g h g g v s s s h g d c  .S { g p p u y i p s c h s x g g h ",
"x p g g g M *.c s d s s s h g d h g g g g g g x x h g g p g h g h g d g h ^ s i p s s s d d i y p p g g p x p g s p s p h h g c ",
"i g g h h x n h s d s s p c g d h g p g p g g v x y x h g p g i s h g g h u g n i g h h t ` u p p h g p p | v p g g g g s g x c ",
"p g h p s h p g s d d n p h g d h g h g g g x g p p p x g g x p y d d d s p p h / d n n b x A d g g g g g x v p s g g s g h h i ",
"g g h i p p g p g h p g s p d d i x h g p g x i p g g p d h d a i [ h s s s *.M c h y h T v.&.x g g g g g g p d s d d d d h d s ",
"g g g p d g h p g x g g d s s h h i h g g g d h p h g g d ..n d p +.P P i s U n g n h 3.- l c y p x h g h g g g g d d g h h h d ",
"p g p p d g h ^ +.i s g h d h c ^ u p h g g h ^ g g g g x f d d d y i %.d n D E +.h ! 7 7 F d p g h g x h p g g g d g g h / p g ",
"p p { { h s s g [ i h s g d h s p p g p g g x =.g g g x i N x d n h v i f o.7 7 8.z.>.q 7 H x p c x g i g p g s g s d p g p p p ",
"{ ` p S a d g x g p x x g g d h g g d d g L j.;.Q  .) T n x h i d { h x { 9.7 7 7 7 7 7 7 1 d.J k ..h f c h i M d d n ] p f d c ",
"x d b.p N |  .d p p i ^ V [ S ^ h g g g h 0.7 7 7 >.6.: > : 1.} p d +.-.l.7 7 7 7 7 7 7 7 7 7 7 7 9.X.h i M ] *.p g Z s.G K z @.",
"A &.#.#.; 1 , h.g d p u { 5.:.> %.c h h X.4.7 7 7 7 7 7 7 7 q ; ~ @.<.> 7 7 7 7 7 7 7 $ e r $ 7 7 q :.W ) R P d h c g.7 7 7 < b ",
"R S f.>.8 7 7 : s.| x n q.7 7 7 2.v.X./ n., 7 7 7 7 7 7 7 7 7 q q : 7 7 7 7 7 7 7 7 $ m.R.R.r.% q O % q 7 7 7.%.=.c.1 8 7 7 7 1 ",
"7 : 8 7 7 7 7 7 7 2.a.a.8 7 7 q o o p.k.,.7 7 7 7 7 7 7 7 7 7 7 7 7 7 7 7 7 7 7 7 7 = R.V.N.U.5 7 7 O q 7 7 7 7 ,.: 7 q 8 7 7 7 ",
"7 7 7 7 7 7 7 7 7 7 7 7 7 7 7 8 O 7 0 7 7 7 7 7 7 7 7 7 8 7 7 7 7 7 7 7 7 7 7 7 7 7 $ M.P.F.R.r.7 % q 7 7 7 7 7 7 7 8   q 7 7 7 ",
"7 7 7 7 7 7 7 7 7 7 7 7 7 7 7 7 0 7 7 7 7 7 7 7 7 7 7 % 7 7 7 7 7 8 7 7 7 7 7 7 7 7 7 $ e.S.e.$ 7 7 7 7 7 7 7 7 7 7 7 q 8 7 7 7 ",
"7 7 7 7 7 7 7 7 7 7 7 7 7 7 7 7 7 7 7 7 7 7 7 7 7 8 7 7 8 7 7 7 7 7 7 7 7 7 7 7 7 7 7 7 % X 7 7 7 7 7 7 7 7 7 7 7 7 7 7 7 7 7 7 ",
"7 8 7 7 7 7 7 7 7 7 7 7 7 7 7 7 7 7 7 7 7 7 7 7 7 7 7 7 7 7 7 7 7 7 7 7 8 8 7 8 7 7 7 7 7 7 7 7 7 7 7 7 7 7 7 7 7 7 7 7 7 7 7 7 ",
"7 8 O 7 7 $ 4 $ 7 7 7 7 7 7 7 7 7 7 7 7 7 7 % 7 7 7 7 7 7 7 7 7 7 7 7 7 q X O 8 7 7 7 7 7 7 7 7 7 7 7 7 7 7 7 7 7 7 7 7 7 7 7 7 ",
"7 7 q 7 7 e.E.C.@ 7 8 8 q 7 7 7 7 7 o @ 6 w.r.6 % 7 7 8 7 7 0 7 7 7 7 7 8 7 q 7 7 7 7 8 7 7 7 7 7 7 7 7 7 7 7 7 7 7 7 8 7 7 7 7 ",
"7 7 7 7 $ A.K.P.t.7 O 7 7 8 7 7 7 # C.L.G.A.G.P.$ 7 7 8 % % q 7 7 7 7 7 7 7 7 7 7 7 7 7 7 7 7 7 7 7 7 7 7 7 7 7 7 7 7 7 7 7 7 7 ",
"7 7 7 7 7 r T.P.m.% 7 X 7 7 7 7 & u.U.i.u.i.N.G.$ 7 7 0 7 8 7 7 7 8 7 7 7 7 7 7 7 7 7 7 7 7 7 7 8 8 8 7 7 7 7 7 7 7 7 7 7 7 7 7 ",
"7 7 7 7 7 & # @ $ 7 q q 8 7 7 7 7 + m.S.i.i.I.r & 7 7 7 7 7 7 7 7 7 7 7 7 7 7 7 7 7 7 7 7 7 7 7 8 X 7 7 7 7 7 7 7 7 8 7 7 7 7 7 ",
"7 7 7 7 7 7 7 7 7 7 7 7 7 7 7 7 7 7 @ C.L.L.w.$ 7 7 7 7 7 7 7 7 7 7 7 7 7 7 7 7 7 7 7 7 7 8 8 q 8 q 7 7 7 7 7 7 7 7 7 7 7 7 7 7 ",
"7 7 7 7 7 7 7 7 7 7 7 7 7 7 7 7 7 7 % w C.3 $ 7 7 7 7 7 7 7 7 7 7 7 7 7 7 7 7 7 7 7 7 7 7 8 % O 8 8 7 7 7 7 7 7 7 7 7 7 7 7 7 7 ",
"7 7 7 7 7 7 7 7 7 7 7 7 q 8 8 7 7 7 7 7 % 7 7 7 7 7 7 7 7 7 7 7 7 7 7 7 7 7 7 7 7 7 7 7 7 7 7 7 7 7 7 7 7 7 7 7 7 7 8 7 q 7 7 7 ",
"7 7 7 7 7 7 7 7 7 7 7 q O % 7 7 7 7 7 7 7 7 7 7 7 7 7 7 7 7 7 7 7 7 7 7 7 q q 7 7 7 7 7 7 q O 7 7 7 7 7 7 8 q 7 7 7 q . 7 7 7 7 ",
"7 7 7 7 7 7 7 7 7 7 8 q O X 8 7 7 7 7 7 7 7 7 7 7 7 7 7 7 7 7 7 7 7 7 7 q X X q 7 7 7 7 7 7 q 7 q 7 7 7 7 7 X 8 7 7 7 q 7 7 7 7 ",
"7 7 7 8 7 8 7 7 7 7 8 8 q q 7 7 7 7 7 7 7 7 7 7 7 7 7 7 7 7 7 7 7 7 7 7 8 7 8 8 7 7 7 7 7 7 7 7 7 7 7 7 7 q 7 7 7 7 7 7 7 7 7 7 ",
"7 7 7 8 O 7 7 7 7 7 7 7 7 7 7 7 7 7 7 7 7 7 7 7 7 7 7 8 7 7 7 7 7 7 7 7 8 7 7 7 7 7 7 7 7 7 7 7 7 7 7 7 7 7 7 7 7 7 7 7 7 7 7 7 ",
"7 7 7 7 8 7 7 7 7 7 7 7 7 7 7 7 7 7 7 7 7 7 7 7 7 7 7 7 7 7 7 7 7 7 7 7 7 7 7 7 7 7 7 7 7 7 7 7 7 q 7 8 7 7 7 7 7 7 7 7 7 7 7 7 ",
"7 7 7 8 7 7 7 7 7 7 7 7 7 7 7 7 7 7 7 7 7 7 7 7 7 7 8 8 7 7 7 7 7 7 7 7 7 7 7 7 7 7 7 7 7 7 7 7 q X 7 O 7 7 7 7 7 7 7 7 7 7 7 7 ",
"7 7 7 7 7 7 7 8 7 7 7 7 7 7 7 7 7 7 7 7 7 7 7 7 q O 7 q 7 7 7 7 7 7 7 7 7 7 7 7 7 7 7 7 7 7 7 7 8 7 7 7 7 7 7 7 7 7 7 7 q q 7 7 ",
"7 7 7 7 7 7 7 7 7 7 7 7 8 7 7 7 7 7 7 8 7 7 7 7 7 7 O 8 7 7 7 7 8 7 7 7 7 7 7 7 7 7 7 7 7 7 7 7 7 q q q 7 7 7 7 7 7 7 q O 7 7 7 ",
"7 7 7 7 7 7 7 7 7 7 7 7 7 7 7 7 7 7 7 7 7 7 7 7 7 7 O 8 7 7 7 7 7 7 7 7 7 7 7 7 7 7 7 7 7 7 7 7 7 7 7 7 7 7 7 7 7 7 7 q O 7 X q ",
"7 7 7 7 7 7 7 7 7 7 7 7 7 7 7 7 7 7 7 7 7 7 7 7 q 7 q 8 7 7 7 7 7 7 7 7 7 $ O 7 7 7 7 7 7 7 7 7 7 7 7 7 7 7 7 7 7 7 7 8 q 7 q 8 ",
"7 7 7 7 8 7 7 7 8 7 7 7 7 7 7 7 7 7 7 7 7 7 7 7 7 7 7 7 7 7 7 7 7 7 7 7 6 S.r.+ 7 7 7 7 7 7 7 7 7 7 7 7 7 7 7 7 7 7 7 7 7 7 7 7 ",
"7 7 7 7 7 7 7 7 7 7 7 7 7 7 7 7 7 7 7 7 7 7 7 7 7 7 7 7 7 7 7 7 7 7 7 $ M.U.R.B.O 7 7 7 7 7 7 7 7 7 7 7 7 7 7 7 7 7 q 7 7 7 7 7 ",
"7 7 7 7 7 7 7 7 7 7 7 7 7 7 7 7 7 7 7 7 7 7 7 7 7 7 7 7 7 7 7 7 7 7 7 7 6 J.P.B.$ 7 7 7 7 7 7 7 7 7 q O 8 7 7 7 7 q O X q 7 7 7 ",
"7 7 7 7 7 7 7 7 7 7 7 7 7 7 7 7 7 7 7 7 7 7 7 7 7 8 8 8 8 7 7 7 7 7 7 7 7 $ $ % 7 7 7 7 7 7 8 7 7 7 q 7 q 7 7 7 q 7 7 8 7 7 7 8 ",
"7 8 7 7 7 7 7 8 q q 7 7 7 7 7 7 7 7 7 7 7 7 7 7 8 q O O 8 7 7 8 7 7 7 7 7 8 $ 8 7 7 7 7 7 7 7 7 7 7 7 7 7 7 7 q O 7 q 7 7 7 7 q ",
"X 8 7 7 7 7 7 8 X X q 7 7 7 7 7 8 q q 8 7 7 7 7 7 q % 7 7 7 7 7 7 7 7 7 7 8 % q 7 7 7 7 7 7 7 7 7 7 7 7 7 7 7 & 7 $ q 7 7 7 7 7 ",
"q 8 7 7 7 7 7 q X 7 8 7 7 7 7 7 7 X O q 7 7 7 7 7 8 7 7 8 7 7 7 7 7 7 7 7 7 7 7 7 7 7 7 7 7 7 7 7 7 7 7 7 7 7 8 7 8 8 7 7 7 7 7 ",
"7 7 7 7 7 7 7 7 q 8 8 7 7 7 7 8 7 7 % 7 7 7 7 7 8 8 7 7 7 7 7 7 7 7 7 8 7 7 7 7 7 7 7 7 7 7 7 7 7 7 7 7 7 7 7 7 7 7 7 7 7 7 7 7 ",
"7 7 7 7 7 7 7 7 8 8 7 7 7 7 $ = * % 8 8 7 7 7 q 7 O 8 7 7 7 7 7 7 7 7 7 7 7 7 7 7 7 7 7 7 7 7 7 7 7 7 7 7 7 7 7 7 7 7 7 7 7 7 7 ",
"7 7 7 7 7 7 7 7 7 7 7 7 7 + M.R.J.4 7 7 7 7 8 q X 7 7 7 7 7 7 7 7 7 7 7 7 7 7 7 q 7 7 7 7 7 7 + r 6 + 7 7 7 7 7 8 7 7 7 7 7 7 7 ",
"7 7 7 7 7 7 7 7 7 7 7 7 $ M.I.D.P.T.$ 7 7 7 7 7 7 7 8 7 7 7 7 7 7 7 7 7 7 7 7 8 % 7 7 7 7 7 $ S.R.I.A.3 % 7 7 7 8 X 7 8 7 7 7 7 ",
"7 7 7 7 7 7 7 7 7 7 7 7 * C.R.P.B.6 7 7 7 7 7 7 7 7 7 7 7 7 7 7 7 7 7 7 7 7 7 7 7 7 7 7 7 7 $ J.F.V.H.G.2 7 7 7 7 q 8 7 7 7 7 7 ",
"7 7 7 7 7 7 q 8 q 8 7 7 7 $ 4 = . 7 7 7 7 7 7 7 7 7 7 7 7 7 7 7 7 7 7 7 7 7 7 7 % 7 7 7 7 7 O y.L.L.H.R.J.* 7 7 7 7 7 7 7 7 7 7 ",
"7 7 7 7 7 8 O 7 O q . q 7 7 7 7 7 7 7 7 7 7 7 7 7 7 7 7 7 7 7 7 7 7 7 7 7 7 7 7 7 7 8 7 7 8 O $ e t.y.w = 7 7 7 7 7 7 7 7 7 7 7 ",
"7 7 7 7 7 7 7 8 7 q q 7 7 7 7 7 7 7 7 7 7 7 7 7 7 7 7 7 7 7 7 7 7 7 7 7 7 7 7 7 7 7 7 7 7 8 7 8 7 $ O 7 7 7 7 7 7 7 7 7 7 7 7 7 ",
"7 7 7 7 7 8 7 X 7 8 7 7 7 7 7 7 7 7 7 7 7 7 7 7 7 7 7 7 7 7 7 7 7 q 7 7 8 7 7 7 7 7 7 7 7 7 7 7 7 7 7 7 7 7 7 7 7 7 7 7 8 q 7 7 ",
"7 7 7 7 7 8 8 q 7 7 7 7 7 7 8 7 7 8 7 8 7 7 7 7 7 7 8 7 7 7 7 7 7 8 X 7 8 7 7 7 7 7 7 7 7 7 7 7 7 7 7 7 7 7 7 7 7 7 7 8 q q X 8 ",
"7 7 7 7 7 7 7 7 7 7 7 7 8 q q % X q 8 7 7 7 8 7 7 7 8 O 7 7 7 7 7 8 8 8 7 7 7 7 7 7 7 7 7 7 7 7 7 7 7 7 7 7 7 7 7 7 7 7 X 8 8 7 ",
"7 7 7 7 7 7 8 7 7 7 7 7 7 X 8 q 8 7 7 7 7 7 7 7 7 7 7 q 8 7 7 7 7 7 8 7 7 7 7 7 7 8 7 7 7 7 7 7 7 7 7 7 7 7 7 7 7 7 7 8 7 8 7 7 ",
"7 7 7 7 7 7 7 7 7 7 7 7 q X 8 7 7 7 7 7 7 7 7 7 7 7 7 7 7 7 7 7 7 7 7 7 7 7 7 7 7 7 7 7 7 7 7 7 7 7 7 7 7 7 7 7 7 7 7 7 7 7 7 7 ",
"7 7 7 7 7 7 7 7 7 7 7 8 8 8 7 7 7 7 7 7 7 7 7 7 7 7 7 7 7 7 7 7 7 7 7 7 7 7 7 7 7 7 7 8 7 7 7 7 7 7 7 7 8 7 7 7 7 7 7 7 7 7 7 7 "
};
