/* XPM */
static char *_d99b6d339a34fdddf3d0b1605bd576dbkVhPF9lGo1bCrLA[] = {
/* columns rows colors chars-per-pixel */
"64 64 67 1 ",
"  c #A1543F",
". c #9E5744",
"X c #9F5846",
"o c #A25743",
"O c #A35A46",
"+ c #A95B46",
"@ c #A55D4A",
"# c #A95E4B",
"$ c #A7604D",
"% c #AB614E",
"& c #B1634F",
"* c #AD6553",
"= c #AF6956",
"- c #AF6B58",
"; c #B26653",
": c #B26956",
"> c #B86B56",
", c #B36C59",
"< c #B96E5A",
"1 c #B6715D",
"2 c #BA725E",
"3 c #8F7E7A",
"4 c #B77460",
"5 c #BB7561",
"6 c #BD7A64",
"7 c #BF7D68",
"8 c #C17A64",
"9 c #C17E69",
"0 c #C3826C",
"q c #C8866F",
"w c #C68770",
"e c #C78872",
"r c #CA8D77",
"t c #968782",
"y c #998781",
"u c #978883",
"i c #9C8B86",
"p c #9E8D89",
"a c #9E908B",
"s c #A08C86",
"d c #A08E8A",
"f c #A3938E",
"g c #A8958F",
"h c #A69691",
"j c #A99792",
"k c #A79994",
"l c #AB9A95",
"z c #AD9E99",
"x c #B09C97",
"c c #B09F9A",
"v c #AEA09B",
"b c #B2A29D",
"n c #B5A5A1",
"m c #B9A9A4",
"M c #BEADA8",
"N c #E09986",
"B c #E69D8C",
"V c #EDA795",
"C c #EFAA97",
"Z c #F1A591",
"A c #F3AD9B",
"S c #F8B19F",
"D c #FBB5A3",
"F c #FFB9A7",
"G c #FFBBAA",
"H c #FFC0AE",
"J c #FFC2B1",
/* pixels */
"ljgfvffvkvbvvvvazkbzvbkzvhhhzjjcjchclbcxjjgjccbhcabkkvkazaxgljnl",
"::%::$=: &;&&;ZvbD,X---$----*-=,;*%,-:%&#>;,,#GlpG$,X-X-=@*O*;:@",
"12111161>22820,vb,91454479555955888859<8<9<899<bp-56564495,,,694",
"=*>:-1,:,:>=,2,vl-5,,,-----,,,,,,,,,5,,,:&;><9<cb-7=-,-=7::-*-,1",
"**:--=::=,=,=2*ac-,*X-**=,8,,55,,**::5-,,,%<><,lf@5:-,-=;<;*%,,$",
"2--:1--,=,=,111vc*<*,,,,@:<=,=,=,,*X-*=--,;>;<%jk=5:,,-1*;**,*1*",
"-======-1,,,=21kc@5,*@-*,,,-=:*==*=::--,,,,>><;iz*5**---,=-=*=-*",
"*:=%====,,=,12Ovd,*,***,,1,,*:*%*=:=,*=,,,,::<,dl$1:--,-=4%4$*=,",
"&:&:5*,,=*,,,,,pj,9,,<,--,,,;+<&;;;&*%,,;*--;<;jh:0%1=4**===,*O#",
"&&&:O,-$,,**%,%id,5*,,,,-*-*&>&&;;&;;,,,,,-,<<&dj:5,,==,*,,;**#*",
"&*%**,,,==,,<*&jx;5,,,*:-,;,<;><;;&;-,,<,,,;;<;jz&2:,::,*,,*@,*;",
",*=,,*--**<:,%:jx,5;*,,,-,<;;<<;;*:;,*@%,;;,;;;xx:2;,:*;=$*,===,",
"$*-145--:,:,:,&jj,<8,<,,,,,,,5<;;;,@:,*-<,;,;<;dx:8>O:,<::=:,:*:",
"61114,-1o25425:fc$98<<55<,<,58588<,1,,,;,;,<5<@cf+q22,102211::27",
"-$-1,-@,*-%<,,BxzS,@,,-,,%,,#,,-,*=,$,,,,,,,<%GzbF1;,::=:,,*::*:",
"kkkkzhfflllzlzjjcdilncccjjizjljdcldcnidcdcdj3cljgffbflhlzblvzzvf",
"zkzlbbklbjhclccfjcnffcdbccjjlhjfjcczdjnbjlzmclhlmfflcjczhkczbzzf",
"kN,,$,**:;:;#;,,$=,$,,*;,,@;;;GjdG,,*,*,:,*,:#,=:@;;*%,::%*%,,Sb",
"b-9122,=:;;,<<5098<,<58,9<5<55,jd-9551<8,5<5,8<925,652$<2:<517,f",
"z=51*,<%:#*%=5--,,=:*,,,-,<<,5*dd-51,,,,5,*:,,,:,@*;5,,;:;;,,1*l",
"z,:,*=<=*;*:*,1:,-,;*1<-::,,-1,cl,5,;,%,*,-$*,,==;::,:<;&;:&,**z",
"d*5::,:==*,:**::,-;;,<,,,::*,1@cdo5o;,5,,*-%=,@<;:*:*,;;;&>:,-,z",
"b-%8<:;*=*X-*1::,<--*,-,#=;:*,,bn;<,*;,,,*;,,=<-,*===;;;;&&*,4$j",
"l$8,&:*::**5,,:,*--**5-,,:;<=<@bc,5*,-5,<;;<,,1,,,=**;=#;;&*:,,l",
"c,5<,:,*,:::,*::,**,#:::,*-,<<,hc,8;;<,,,,;><;:<,:*:*@;;&*=:,1,l",
"l:<:>,&*<*::*;::*@;%***<-,;,,5,cc;5;;<;,;<+<;5-:,,*=;,==,**,,2,z",
"c@,%&&;&%::,:*<:*;*<,;*;*,:,,<,lc,5;;;,****,,,,:,*,===,-,*-,-5@k",
"f;;,&>>;:::1;:@**;<;;*;**#,:,5,dx,9;&&*;;::,:,,@,,=,,,,,<,4,=4,c",
"x;&>&>&&@<,@*<:,%<=**,*,,*:1,8,bj:<,;<;,:,-,1<,4,5,1-4-5<:<,,5#x",
"xo88>+8851<,,55<18<,<<5<<81859:dd,55<55<4157999*69r75547288558>j",
"xZ8&&;+<,,&,**,o,%<-,*;:*::*,,AlcA,$,*;,,-1*,,@,,,$,=,=,>:::>>Fx",
"bxggjyxxjxljlxjmMnbnffhjjlnljjlcdccjcjclblbzjznclzzzhthcjcjjjjdj",
"bjjlfjxxbxbjfsnntzllklfllzlgjhlljcjclcjzjjdddddlcchcldhhvlljdclc",
"::*::@;o;&#>,<DfbA,=*,,%::;O;;*;%*;*,%:$;;-*,*GlbG,@---,@-::,,,@",
"7559864<8>8;99:xb,9521485622555=555595,95,,<5e,jj,079e<<1<5<8588",
",,--,,%*;;;+8<@db-92,-:::;:,;<,,,,<<,,:,,<,,,,,nl,7,,<-;,:,,-,,,",
"-,,--,-:>:;>>>>bj-2:=*,:,>:===1=**,;*-,,,,;,,5,jjX5,,,;*&;;;,,<-",
",5-,-*,,:<;&>>&jz@<:*=,5*;%:-=,=,*,,,,,,;,,#,<,dj-5,-,,*&;;*<-,-",
"-*,---::,,,:;:*lj*2*,1,;=,:,*=;*-,,;;<-,>>;,-,*jc-,*;*;,;;,:*,--",
"--,----1,,*:<:;ll%2,=,*,,5$:$;*=-,,,,;;;;;,,,<,cc*5,;***;%*=$***",
":-,*#-,5-**-,:*lj:5,=-,-2=O,,*,=,,,;,,;;<>&&,<,ck,6<*&:&;%-:-;;:",
",8<,*------1-5*ll:5,:,:::15=-:*=,*;;<<,<;;;<,,;cl*6*:<:&;;::,;;;",
",,<,*-:,-*,,%,,ll-6,,,::,-=,,==,;,;<,,;;;&;;**@cb,6,,::&%:*,,::>",
";:,:-,-,**--*-:hl,7:,,,,=,::=;,,,,<;;;,,&&;;*<,cb-25,**,;<--:*<*",
",1-41-,-==-@,,*aj-6<,,:-2$:,;:&:,,,,,**,&>,,,,*tc$91,-,*,-:,::;,",
"61141,-1,44144*bz-965,<821111;20<,5<5,<o<;<<<9,nv,w55,442<2,5,88",
"-,=-$-1--@,-,,VklG-,-,,,1$:*%;#;,#,;,,,;,,@,$,AtnG1$-%%,$,@,,@,,",
"llkzhzzkzkzlzkbllkabbjlclxxbsvxvcjjjljjjjjjcjcclbzkhhfffcjfnjllh",
"kkzhzllzzzbkzllzkzklnkvvlzvlkgvljjczzjhxdjgjcjzvkkkzzzhlvvhbvvkk",
"kV-$,X-$-,*=:%;;;:=;=--&>:1::&CgzA,,,*O;@;;#,,,,$1O-=*@:=o;;%$Cv",
"z-7164,,4,,16292q76464448640001kh,w94<92<89854555554515,52,,27,k",
"z*X-,,,=======;::::1===%;>&;16Okz<9,,,&,****,,:1=12=;=;;=::1-,1h",
"z-5#,,,5===:-:,-@1=:==;;&;&>444kj%4,::#&*,#&:,,*,,;*$:;,:,2*-1,v",
"z$<;,=,-2=*1,-*=:-&4%==:;>&&>6%vz,9;:>;<:;**,-,,,*=;:;*;=*$=:,=k",
"l=,;;,=,:=::--*11===*1:& &&;>6=ln<6<>&&&***,,,,=,=*=:*<*:,2:;1=k",
"h*=;<;=,-:;;=-=====@:=;;&&>%=7=kz,5,;>:&<,*,1--1-,=;;;*$=:&;;,:k",
"h%1;1:-2=&&&,=:----:$*$::=%&-6-ka*8,*;;;;*:,5,--,,%*%;*;1:<;;,#z",
"k$:;;:1=:&&&>=-1-4-:::::=:==16*vl-,4:;&>;,,9=,,-:15;:;**::;:,,,z",
"v-1:;::=:%%&11=1--*-==-:&=*==2,fv$$<;&;&*==,,==,=,*@:=:==,,,,,4h",
"k=1&::>,%>&:=1-----==-=-=-=*-0=kk,5:;&&>;,;,-=*,5,::**==,:=:,4,k",
"v-1-2:%:;,;:*,,2-4-4:1-:0&;>,1*bl-61;>>;;5=,=,,,*,=:%1*:;,;:,2=h",
"v:6212216,>212444444476582>1,6,vv%w25<2<*5,5256564552:;:1:22<,$l",
"kC11=,,,O:&:2,,=*---=:=:O;$;,,JvvH::;>;:*$,,=<;*,,,#,+;*;%;,$-Dp",
"lfjvzvllbbjlbbvhzzmfzuigkgggalvbllzfgljlhzjjzzhhnlzzajhingbvfzzk"
};
