/* XPM */
static char *_cba05c17b5f4647ba583d712e08416clrwLIoX04KvLDLH1[] = {
/* columns rows colors chars-per-pixel */
"64 64 256 2 ",
"   c black",
".  c blue",
"X  c green",
"o  c red",
"O  c cyan",
"+  c yellow",
"@  c magenta",
"#  c white",
"$  c #7B7B7B",
"%  c #7B7B7B",
"&  c #7B7B7B",
"*  c #7B7B7B",
"=  c #7B7B7B",
"-  c #7B7B7B",
";  c #7B7B7B",
":  c #7B7B7B",
">  c #7B7B7B",
",  c #7B7B7B",
"<  c #7B7B7B",
"1  c #7B7B7B",
"2  c #7B7B7B",
"3  c #7B7B7B",
"4  c #7B7B7B",
"5  c #7B7B7B",
"6  c #7B7B7B",
"7  c #7B7B7B",
"8  c #7B7B7B",
"9  c #7B7B7B",
"0  c #7B7B7B",
"q  c #7B7B7B",
"w  c #7B7B7B",
"e  c #7B7B7B",
"r  c #7B7B7B",
"t  c #7B7B7B",
"y  c #7B7B7B",
"u  c #7B7B7B",
"i  c #7B7B7B",
"p  c #7B7B7B",
"a  c #7B7B7B",
"s  c #7B7B7B",
"d  c #7B7B7B",
"f  c #7B7B7B",
"g  c #7B7B7B",
"h  c #7B7B7B",
"j  c #7B7B7B",
"k  c #7B7B7B",
"l  c #7B7B7B",
"z  c #7B7B7B",
"x  c #7B7B7B",
"c  c #7B7B7B",
"v  c #7B7B7B",
"b  c #7B7B7B",
"n  c #7B7B7B",
"m  c #7B7B7B",
"M  c #7B7B7B",
"N  c #7B7B7B",
"B  c #7B7B7B",
"V  c #7B7B7B",
"C  c #7B7B7B",
"Z  c #7B7B7B",
"A  c #7B7B7B",
"S  c #7B7B7B",
"D  c #7B7B7B",
"F  c #7B7B7B",
"G  c #7B7B7B",
"H  c #7B7B7B",
"J  c #7B7B7B",
"K  c #7B7B7B",
"L  c #7B7B7B",
"P  c #7B7B7B",
"I  c #7B7B7B",
"U  c #7B7B7B",
"Y  c #7B7B7B",
"T  c #7B7B7B",
"R  c #7B7B7B",
"E  c #7B7B7B",
"W  c #7B7B7B",
"Q  c #7B7B7B",
"!  c #7B7B7B",
"~  c #7B7B7B",
"^  c #7B7B7B",
"/  c #7B7B7B",
"(  c #7B7B7B",
")  c #7B7B7B",
"_  c #7B7B7B",
"`  c #7B7B7B",
"'  c #7B7B7B",
"]  c #7B7B7B",
"[  c #7B7B7B",
"{  c #7B7B7B",
"}  c #7B7B7B",
"|  c #7B7B7B",
" . c #7B7B7B",
".. c #7B7B7B",
"X. c #7B7B7B",
"o. c #7B7B7B",
"O. c #7B7B7B",
"+. c #7B7B7B",
"@. c #7B7B7B",
"#. c #7B7B7B",
"$. c #7B7B7B",
"%. c #7B7B7B",
"&. c #7B7B7B",
"*. c #7B7B7B",
"=. c #7B7B7B",
"-. c #7B7B7B",
";. c #7B7B7B",
":. c #7B7B7B",
">. c #7B7B7B",
",. c #7B7B7B",
"<. c #7B7B7B",
"1. c #7B7B7B",
"2. c #7B7B7B",
"3. c #7B7B7B",
"4. c #7B7B7B",
"5. c #7B7B7B",
"6. c #7B7B7B",
"7. c #7B7B7B",
"8. c #7B7B7B",
"9. c #7B7B7B",
"0. c #7B7B7B",
"q. c #7B7B7B",
"w. c #7B7B7B",
"e. c #7B7B7B",
"r. c #7B7B7B",
"t. c #7B7B7B",
"y. c #7B7B7B",
"u. c #7B7B7B",
"i. c #7B7B7B",
"p. c #7B7B7B",
"a. c #7B7B7B",
"s. c #7B7B7B",
"d. c #7B7B7B",
"f. c #7B7B7B",
"g. c #7B7B7B",
"h. c #7B7B7B",
"j. c #7B7B7B",
"k. c #7B7B7B",
"l. c #7B7B7B",
"z. c #7B7B7B",
"x. c #7B7B7B",
"c. c #7B7B7B",
"v. c #7B7B7B",
"b. c #7B7B7B",
"n. c #7B7B7B",
"m. c #7B7B7B",
"M. c #7B7B7B",
"N. c #7B7B7B",
"B. c #7B7B7B",
"V. c #7B7B7B",
"C. c #7B7B7B",
"Z. c #7B7B7B",
"A. c #7B7B7B",
"S. c #7B7B7B",
"D. c #7B7B7B",
"F. c #7B7B7B",
"G. c #7B7B7B",
"H. c #7B7B7B",
"J. c #7B7B7B",
"K. c #7B7B7B",
"L. c #7B7B7B",
"P. c #7B7B7B",
"I. c #7B7B7B",
"U. c #7B7B7B",
"Y. c #7B7B7B",
"T. c #7B7B7B",
"R. c #7B7B7B",
"E. c #7B7B7B",
"W. c #7B7B7B",
"Q. c #7B7B7B",
"!. c #7B7B7B",
"~. c #7B7B7B",
"^. c #7B7B7B",
"/. c #7B7B7B",
"(. c #7B7B7B",
"). c #7B7B7B",
"_. c #7B7B7B",
"`. c #7B7B7B",
"'. c #7B7B7B",
"]. c #7B7B7B",
"[. c #7B7B7B",
"{. c #7B7B7B",
"}. c #7B7B7B",
"|. c #7B7B7B",
" X c #7B7B7B",
".X c #7B7B7B",
"XX c #7B7B7B",
"oX c #7B7B7B",
"OX c #7B7B7B",
"+X c #7B7B7B",
"@X c #7B7B7B",
"#X c #7B7B7B",
"$X c #7B7B7B",
"%X c #7B7B7B",
"&X c #7B7B7B",
"*X c #7B7B7B",
"=X c #7B7B7B",
"-X c #7B7B7B",
";X c #7B7B7B",
":X c #7B7B7B",
">X c #7B7B7B",
",X c #7B7B7B",
"<X c #7B7B7B",
"1X c #7B7B7B",
"2X c #7B7B7B",
"3X c #7B7B7B",
"4X c #7B7B7B",
"5X c #7B7B7B",
"6X c #7B7B7B",
"7X c #7B7B7B",
"8X c #7B7B7B",
"9X c #7B7B7B",
"0X c #7B7B7B",
"qX c #7B7B7B",
"wX c #7B7B7B",
"eX c #7B7B7B",
"rX c #7B7B7B",
"tX c #7B7B7B",
"yX c #7B7B7B",
"uX c #7B7B7B",
"iX c #7B7B7B",
"pX c #7B7B7B",
"aX c #7B7B7B",
"sX c #7B7B7B",
"dX c #7B7B7B",
"fX c #7B7B7B",
"gX c #7B7B7B",
"hX c #7B7B7B",
"jX c #7B7B7B",
"kX c #7B7B7B",
"lX c #7B7B7B",
"zX c #7B7B7B",
"xX c #7B7B7B",
"cX c #7B7B7B",
"vX c #7B7B7B",
"bX c #7B7B7B",
"nX c #7B7B7B",
"mX c #7B7B7B",
"MX c #312910",
"NX c gray32",
"BX c #4A3920",
"VX c #392910",
"CX c #101010",
"ZX c gray16",
"AX c #181818",
"SX c #393939",
"DX c #202908",
"FX c #313131",
"GX c #292008",
"HX c #202020",
"JX c #414141",
"KX c #181008",
"LX c #100800",
"PX c gray29",
"IX c #4A3929",
"UX c #626262",
/* pixels */
"GXKXKXVXKXMXMXAXAXAXDXSXPXSXPXPXPXSXSXSXSXSXFXFXSXAXHXCXAXFXSXPXSXPXNXNXPXPXPXSXSXHXAXCXCXCXCXCXCXCXAXKXAXAXAXAXAXAXAXAXKXCXCXAX",
"FXSXHXHXAXHXAXHXHXHXAXSXPXSXSXPXSXPXPXFXFXFXHXFXFXFXAXGXAXFXPXPXSXSXSXSXSXFXSXFXFXHXAXCXCXCXCXAXAXAXAXHXCXCXCXCXCXCXAXCXCXCXAXHX",
"HXHXFXAXCXHXAXAXHXHXAXSXPXSXSXSXSXFXFXHXHXHXFXFXFXSXAXMXAXFXPXSXSXSXSXSXSXSXFXSXHXAXAXCXCXCXHXHXHXFXFXAXAXHXHXHXHXAXAXFXHXFXHXAX",
"HXFXFXHXFXHXSXFXKXHXAXPXPXSXFXSXFXFXFXHXHXHXFXSXSXFXFXAXHXIXSXSXSXSXFXSXSXPXSXFXHXAXAXKXCXHXSXPXSXPXPXPXPXPXFXSXFXFXFXFXSXSXHXHX",
"SXSXSXSXFXFXFXSXGXHXAXSXSXFXSXFXFXFXHXHXHXFXFXPXFXFXAXAXAXHXSXSXSXFXSXPXSXNXPXSXHXAXAXCXCXHXPXSXPXPXSXSXSXPXPXPXUXPXSXPXUXPXSXSX",
"SXSXHXPXPXPXPXFXHXKXAXHXSXSXFXFXHXHXHXHXFXSXSXFXFXHXHXKXKXAXHXPXSXSXPXPXPXUXUXSXHXKXCXCXCXHXPXSXSXFXHXHXPXPXSXSXPXUXPXUXPXSXHXFX",
"SXSXFXFXSXFXSXHXAXHXCXHXSXSXFXFXSXPXSXSXPXSXFXSXSXFXFXKXCXCXHXSXPXSXPXNXUXUXUXSXHXFXAXCXCXSXPXPXPXSXPXPXPXSXFXFXSXPXPXPXHXHXHXHX",
"PXFXFXFXSXFXFXAXKXAXAXHXSXSXSXSXPXSXHXFXSXFXFXFXFXFXHXCXAXHXKXHXSXPXPXPXPXSXSXHXAXAXCXCXGXSXPXPXPXPXSXFXSXHXFXFXPXPXFXFXFXSXFXFX",
"FXSXFXSXFXFXCXCXGXCXAXHXSXSXFXSXFXHXFXFXFXFXFXFXHXHXAXKXGXKXCXAXHXHXAXHXHXAXAXCXCXCXCXCXMXSXPXSXSXHXHXHXSXFXSXFXFXHXFXSXSXFXHXFX",
"FXFXFXHXFXCXAXCXCXCXCXSXSXSXFXSXHXFXSXPXFXFXFXHXAXAXAXAXCXAXCXCXAXCXCXAXCXCXCXCXCXCXCXCXAXHXHXSXHXHXSXFXFXSXFXPXHXFXSXFXFXSXHXFX",
"HXHXHXFXAXHXHXHXAXAXHXHXSXSXFXFXFXFXSXSXSXFXHXAXAXAXHXKXKXCXCXCXCXCXCXCXAXGXGXHXAXCXCXCXHXAXHXSXHXHXFXSXSXFXFXFXHXHXHXHXHXAXHXFX",
"HXHXAXCXHXCXAXAXCXCXKXHXPXPXPXSXPXPXSXFXHXSXAXAXAXHXSXKXCXCXAXHXHXKXHXAXHXSXPXPXPXHXCXCXFXHXFXFXFXSXFXHXHXHXCXCXCXAXAXAXAXAXHXFX",
"CXAXAXCXCXCXAXCXAXGXCXFXPXPXFXHXFXFXFXSXSXFXSXSXHXHXSXAXKXCXKXFXHXFXPXSXPXPXSXSXSXFXAXCXHXAXHXAXHXHXHXSXFXCXCXCXCXAXGXCXKXCXAXAX",
"KXAXCXKXCXGXCXAXKXKXAXHXFXSXSXSXFXFXSXPXPXHXHXPXSXAXSXAXAXCXHXFXPXPXSXSXFXSXFXFXPXFXAXCXKXCXHXHXHXKXAXDXHXAXAXAXAXAXKXCXCXCXMXKX",
"AXKXAXAXMXKXHXHXAXGXFXAXFXSXPXHXFXSXPXSXHXAXAXHXPXSXHXAXKXCXAXFXPXPXSXFXFXFXSXSXFXAXCXCXAXGXGXCXAXAXAXCXAXAXKXKXKXCXGXCXAXCXGXKX",
"HXHXGXGXHXHXHXGXAXAXAXFXHXSXHXFXFXFXSXSXAXAXHXHXHXPXSXHXKXCXHXHXPXPXFXFXFXSXHXHXAXCXCXCXGXCXAXAXHXFXAXAXHXAXAXAXKXCXCXHXAXHXHXCX",
"FXHXHXFXHXHXHXHXFXKXFXAXAXSXSXFXFXFXFXHXAXHXSXSXHXHXSXHXGXCXCXHXSXHXHXHXHXHXHXHXFXAXCXCXKXHXFXSXSXHXAXHXAXFXSXFXHXFXFXFXFXFXHXHX",
"SXSXSXSXSXPXPXPXSXAXAXCXCXFXSXHXHXSXAXHXHXHXSXFXHXHXHXAXCXCXCXHXSXSXHXHXFXSXPXSXFXMXHXCXKXFXNXPXSXAXAXHXFXSXPXPXNXNXPXSXPXPXSXSX",
"SXSXFXSXHXFXPXFXFXAXCXAXAXHXHXHXSXFXFXFXFXSXSXHXHXHXHXHXCXCXCXAXSXSXHXHXAXFXSXFXFXMXAXGXAXNXPXFXSXAXKXFXPXPXPXPXSXSXSXSXHXHXSXHX",
"PXFXFXSXSXSXSXSXSXFXAXCXCXHXFXFXFXSXHXHXHXHXHXAXHXKXCXCXCXCXCXAXAXHXHXHXFXAXHXFXAXFXAXCXCXPXSXFXFXAXCXHXPXSXFXFXSXFXHXHXHXSXFXSX",
"FXPXFXFXFXFXFXHXHXKXCXKXHXAXHXHXHXAXHXHXAXCXAXCXAXCXCXCXCXAXCXCXCXCXAXHXMXAXAXCXAXAXCXCXHXSXSXHXHXAXCXHXPXSXFXFXFXHXHXFXHXFXFXSX",
"PXSXSXFXFXHXFXHXHXAXCXAXAXAXAXAXAXHXAXHXAXAXAXCXCXCXCXCXCXCXCXAXCXCXCXCXAXCXCXCXCXCXCXAXHXSXHXHXHXAXAXFXSXFXFXFXHXHXFXFXFXFXSXPX",
"FXFXHXHXFXHXHXFXAXHXAXCXHXHXHXAXAXCXAXCXCXCXCXCXCXCXAXHXAXAXHXHXSXPXPXSXSXHXHXHXAXCXCXAXHXSXPXFXHXCXAXHXPXHXHXFXHXHXHXFXSXSXSXPX",
"FXFXHXHXFXHXFXHXAXAXCXCXHXPXPXUXUXPXSXHXAXAXCXCXCXHXFXSXPXPXNXNXNXPXPXPXPXSXFXFXHXKXCXAXSXPXNXSXFXAXKXHXHXFXHXAXHXAXHXSXSXPXPXSX",
"HXHXFXHXHXHXHXHXHXCXCXGXPXSXSXPXPXUXUXPXAXAXCXCXHXPXPXUXPXPXSXPXSXSXSXSXFXFXFXFXFXAXKXHXSXNXSXHXAXAXAXHXFXHXHXAXHXHXFXFXFXFXSXFX",
"HXFXFXHXFXSXHXCXAXGXCXCXPXSXFXFXFXSXPXUXPXAXAXCXFXUXNXPXSXSXFXHXHXFXFXFXFXSXFXHXAXKXAXHXSXSXHXFXHXHXHXAXFXFXHXHXAXFXHXHXHXFXHXHX",
"HXHXFXFXHXHXAXMXAXCXCXKXSXSXFXHXFXPXFXFXSXCXCXCXFXNXPXSXFXHXHXFXFXFXFXSXSXPXPXBXHXAXMXFXSXSXSXSXFXDXAXAXAXCXAXHXHXAXCXAXAXAXAXAX",
"HXAXAXHXHXAXKXCXAXCXAXAXSXSXFXSXSXHXHXAXAXCXCXAXFXPXSXFXHXHXFXFXFXSXSXFXPXSXFXHXAXCXAXFXSXSXPXSXKXKXAXAXCXCXCXKXCXCXCXCXCXAXCXCX",
"CXKXKXKXKXAXKXAXKXAXHXKXSXFXPXPXPXSXPXHXAXCXCXAXFXPXFXHXHXHXFXSXFXSXSXFXPXFXFXCXCXKXKXHXSXPXNXSXAXCXAXCXCXAXAXKXCXCXCXCXCXAXCXCX",
"HXAXHXAXHXSXPXPXSXFXAXAXFXPXSXPXPXPXPXPXPXAXCXHXHXSXFXHXHXHXFXSXSXFXFXSXSXSXFXAXCXKXCXAXPXPXUXSXHXAXHXAXFXSXSXFXAXCXCXCXAXKXCXCX",
"HXFXPXPXPXPXSXSXPXPXHXCXPXPXFXFXSXSXFXPXPXKXCXCXHXSXFXHXHXHXFXSXSXSXFXSXFXFXHXAXAXCXCXAXPXUXNXSXHXKXAXHXSXPXPXNXSXFXKXCXAXCXAXAX",
"AXPXPXSXSXSXSXSXSXPXFXCXSXFXFXHXHXFXSXFXPXAXCXCXHXSXFXSXHXSXSXSXSXSXFXHXFXSXFXAXAXAXGXFXPXNXSXFXAXKXCXHXSXSXSXPXNXPXPXPXSXHXKXHX",
"FXPXSXSXSXFXSXFXSXPXFXCXFXFXSXPXPXFXFXSXSXKXCXGXFXSXSXPXSXFXSXFXSXFXSXFXHXSXFXCXAXCXAXSXPXSXFXPXFXGXCXSXSXFXHXSXPXSXFXPXPXFXAXCX",
"FXPXSXFXHXFXHXSXFXFXAXCXHXFXFXSXFXHXSXAXHXAXCXCXHXFXSXPXPXSXHXHXFXSXFXFXHXFXAXCXCXCXAXHXSXFXPXFXHXAXCXSXHXHXHXFXSXFXFXSXPXPXHXHX",
"HXSXPXFXHXSXFXFXFXSXHXCXSXSXFXFXHXSXFXSXAXHXCXCXHXHXPXPXPXSXHXHXHXFXPXFXHXHXCXKXCXCXHXFXPXSXFXHXAXCXCXSXHXSXFXSXFXHXHXSXFXFXAXKX",
"CXSXSXSXHXHXSXFXFXSXAXKXSXPXSXHXSXFXPXFXPXSXCXCXCXFXPXPXPXSXHXHXFXSXSXHXHXAXCXAXCXCXAXFXPXFXHXAXAXCXCXSXSXFXFXSXFXSXFXHXSXFXAXCX",
"HXSXSXHXAXHXHXSXFXFXHXAXFXPXSXHXFXPXPXSXSXFXKXCXCXHXPXPXSXFXFXHXHXHXHXHXAXCXCXAXCXCXAXHXSXHXHXAXCXCXCXPXSXFXSXSXHXHXHXHXFXHXCXCX",
"FXSXHXSXSXSXSXFXSXSXHXCXFXPXFXFXFXFXFXFXFXFXKXCXCXHXSXSXHXHXSXHXHXAXCXAXAXAXCXCXCXCXAXHXAXAXHXKXCXCXCXFXFXFXFXAXAXHXFXFXCXAXHXGX",
"HXSXSXHXHXFXSXFXSXPXHXCXFXPXFXSXPXPXPXSXFXAXAXCXCXAXFXSXFXHXHXAXAXCXAXAXAXCXCXCXCXCXCXAXCXHXHXCXCXCXCXCXMXHXAXCXAXAXAXAXCXCXGXCX",
"HXHXSXFXSXSXSXFXSXSXHXCXHXPXSXFXSXPXSXFXHXHXKXCXKXKXKXHXKXAXAXAXAXCXCXCXCXCXCXCXCXCXCXCXCXCXCXCXCXCXCXCXAXCXCXCXCXCXCXAXAXHXKXGX",
"HXSXSXSXFXFXHXHXFXSXHXCXHXSXFXHXFXSXFXSXHXAXCXCXCXCXCXCXCXCXCXCXCXCXCXCXCXCXCXCXCXCXCXCXCXCXCXCXHXAXAXHXHXHXHXHXHXHXHXFXHXFXCXCX",
"HXFXSXFXSXFXSXHXFXFXAXCXAXFXHXFXSXFXSXFXHXHXCXCXCXCXCXCXCXAXAXAXHXHXHXSXPXSXHXHXSXSXHXSXSXFXHXSXSXSXPXPXPXPXPXPXSXSXPXSXFXHXCXAX",
"HXSXSXPXSXSXSXSXPXFXGXCXCXSXSXFXSXFXSXFXHXAXCXCX  CXCXCXFXHXHXFXPXUXUXUXNXNXUXUXNXPXPXPXNXUXUXUXNXPXPXPXPXPXPXPXPXPXSXSXSXFXAXHX",
"HXSXSXFXSXFXFXSXSXKXCXCXAXSXFXSXSXPXSXSXAXHXCXCX  CXCXFXHXSXPXUXUXUXPXPXPXPXPXPXPXSXPXPXPXPXPXPXPXPXPXPXSXSXFXSXSXPXSXSXFXAXGXAX",
"AXFXSXFXHXHXSXFXFXHXCXCXAXSXFXSXSXSXSXPXHXHXCXCX  AXAXHXSXUXUXPXPXPXPXSXSXSXPXSXHXHXFXFXSXSXFXFXSXSXPXSXFXFXFXFXSXPXSXFXHXCXKXAX",
"HXSXHXHXHXSXFXHXFXAXCX  AXSXFXSXSXFXSXSXFXHXCXCX  AXKXSXPXPXPXPXPXSXSXFXFXSXFXHXHXHXHXHXHXHXHXFXFXFXSXSXFXHXHXSXPXSXFXHXHXAXHXMX",
"AXFXSXFXSXFXFXFXAXKXCX  HXFXPXFXFXPXFXHXHXCXCXCXCXCXCXSXPXPXSXPXSXPXSXSXSXFXHXHXHXHXHXHXHXFXSXFXHXHXFXHXHXHXHXSXFXHXHXHXFXHXMXHX",
"HXFXFXFXHXHXHXAXAXCXCX  CXHXHXFXFXFXFXHXHXAXKXCX  CXCXSXPXSXSXHXFXPXSXFXFXSXFXHXFXSXSXSXFXSXSXFXFXHXHXSXHXHXHXHXHXHXHXSXFXHXAXGX",
"AXHXAXHXGXCXAXCXCXCX    CXAXSXFXFXHXHXHXCXKXCX    CXCXHXSXSXHXHXHXFXHXFXHXHXFXFXPXPXPXSXPXPXSXFXFXFXSXPXSXHXHXHXHXHXHXFXFXFXKXKX",
"HXHXHXAXCXAX          CXCXHXFXAXHXHXHXAXCXCXCX    CXCXAXHXSXFXHXFXHXFXHXFXHXSXFXFXSXSXPXPXPXSXSXHXFXSXSXFXHXHXHXHXHXFXHXHXFXKXAX",
"HXAXHXAXCXCXCXCXCX    CXCXAXAXAXGXAXCXAXCXCX      CX  CXHXHXHXHXHXHXFXHXFXFXSXFXFXSXPXPXSXHXAXAXFXHXHXFXHXHXHXHXFXHXFXHXFXAXCXCX",
"HXHXHXFXPXPXPXPXSXFXKXAXAXGXAXAXCXGXCXCXCX  CX    CX    KXCXCXAXKXAXAXHXHXHXFXHXFXSXSXFXHXAXCXCXAXHXHXHXFXHXHXHXHXHXHXFXAXAXCXAX",
"AXHXFXPXPXSXSXSXPXPXSXFXFXKXKXAXHXAXGXGXAXCXAXAXCXAXCX  CXCXCXCXCXCXKXCXAXCXCXCXAXAXAXAXAXCX    CXAXAXAXAXAXAXAXAXAXAXHXCXCXKXAX",
"HXFXPXSXSXFXSXSXPXSXSXSXPXUXUXPXSXSXSXSXFXFXHXHXHXKXHXAXAXHXAXCXCXCXCXCXCXCXCXCXCXCXCXCXCX    CXCXCXCXCXCXCXCXCXCXKXAXKXCXCXAXCX",
"AXFXSXSXSXFXFXSXFXSXSXSXSXPXNXPXPXSXPXPXPXPXSXFXHXHXHXHXHXFXFXHXAXAXCXCXCXCXCXAXCXCXCXCXCXCXCXCXCXCXAXCXCXCXCXCXKXAXCXCXCXCXCXCX",
"AXFXSXPXFXFXFXHXHXSXFXHXSXPXPXPXSXFXPXPXPXSXSXHXHXHXHXSXSXSXPXSXFXHXCXCXCXAXAXCXCXCXCXCXCXCXAXCXGXAXCXCXCXCXCXCXCXCXCXCXCXCXAXCX",
"HXFXPXPXFXFXFXFXFXFXFXHXFXPXSXHXFXHXFXFXFXFXHXHXHXHXSXFXFXSXSXFXHXGXAXCXCXHXSXPXPXSXHXCXAXAXKXHXAXCXAXAXCXCXCXCXCXCXHXCXCXAXAXAX",
"AXFXSXSXFXPXSXHXFXFXHXHXSXSXHXHXHXHXFXHXHXHXHXHXHXFXFXSXFXSXSXFXHXAXCXCXHXFXSXSXSXPXPXSXFXHXCXAXAXFXSXSXSXSXSXSXSXFXFXFXAXAXHXHX",
"AXFXFXHXHXHXHXAXHXHXFXHXFXFXHXHXAXHXFXHXFXHXHXFXHXHXSXHXHXSXHXAXCXCXCXAXAXFXSXSXSXSXSXSXPXFXAXAXHXFXSXSXFXHXSXPXSXSXSXHXHXFXCXAX",
"HXFXFXHXAXAXAXAXAXHXHXFXFXHXAXAXAXHXHXHXAXAXHXHXHXHXHXHXHXHXAXCX  CXCXKXHXFXFXSXSXFXFXFXSXFXHXCXHXHXHXHXHXFXFXSXSXFXHXHXSXHXAXHX",
"KXHXHXHXAXCXCXCXAXAXHXHXHXAXCXCXCXAXHXHXAXAXAXHXHXHXHXHXHXAXCXCX  CXCXKXAXAXHXFXFXFXFXFXHXHXHXCXAXHXSXFXFXSXFXFXFXHXHXFXSXFXAXHX",
"HXAXGXCXKXKXCXCXCXAXAXMXAXCXCXCXGXMXAXCXAXAXAXAXAXAXAXAXKXCX      CXCXCXCXHXAXAXHXHXHXHXHXHXAXCXAXHXHXHXFXHXHXHXHXHXFXSXFXHXKXAX",
"CXHXHXHXAXKXCXCXCX  CXAXHXFXSXSXPXPXUXUXPXPXFXAXCXCXCXCX          CXCXCXCXGXGXCXCXCXCXAXAXAXCXCXKXAXHXHXFXHXHXFXHXHXFXHXHXKXKXAX",
"CXCXAXAXKXAXCX    CXGXHXFXPXPXPXPXPXPXPXPXPXPXSXFXAXCXCX    HXFXSXSXPXPXPXSXSXFXHXAXCXCXCXCXCXCXCXKXAXAXHXHXHXHXHXHXHXAXAXAXCXCX"
};
